<svg width="86" height="83" fill="none" xmlns="http://www.w3.org/2000/svg"><path d="M58.575 77.264l1.292-57.1c.07-3.072-3.34-5.102-6.01-3.579l-25.83 14.782c-1.418.81-.157 3.02 1.263 2.208l25.83-14.78c.984-.562 2.23.18 2.204 1.312l-1.292 57.1c-.025 1.106-1.252 1.795-2.21 1.242L4.74 50.111c-.974-.562-.97-1.998.006-2.555l15.723-8.993c1.417-.811.156-3.02-1.264-2.209l-15.72 8.993c-2.647 1.51-2.646 5.45-.017 6.967L52.55 80.652c2.596 1.5 5.956-.376 6.024-3.388z" fill="#FF8619"/><path d="M38.84 48.49h.002a3.33 3.33 0 004.403-1.01l7.451-10.98c.516-.76.694-1.709.488-2.604a3.328 3.328 0 00-1.574-2.131l-1.67-.964a3.328 3.328 0 00-2.632-.298 3.323 3.323 0 00-2.011 1.725l-5.784 11.944a3.33 3.33 0 001.327 4.318zm7.215-15.555a.768.768 0 01.614.07l1.669.963a.767.767 0 01.367.497.767.767 0 01-.114.606l-7.451 10.98a.776.776 0 01-1.026.236h-.002a.777.777 0 01-.31-1.008l5.784-11.942a.771.771 0 01.469-.402c-.12.037.12-.037 0 0zM33.034 58.553a4.577 4.577 0 006.244-1.674 4.577 4.577 0 00-1.672-6.245 4.577 4.577 0 00-6.245 1.674 4.577 4.577 0 001.673 6.245zm3.3-5.715a2.03 2.03 0 01.742 2.769 2.03 2.03 0 01-2.77.742 2.03 2.03 0 01-.742-2.77 2.03 2.03 0 012.77-.742zM23.553 36.043a1.287 1.287 0 001.738-.465 1.287 1.287 0 00-.466-1.738 1.285 1.285 0 00-1.708.419c-.383.6-.182 1.428.436 1.784z" fill="#FF8619"/></svg>