<svg width="43" height="44" fill="none" xmlns="http://www.w3.org/2000/svg"><path d="M17.258 8.068a.847.847 0 00-1.192 0 .847.847 0 000 1.19.889.889 0 00.274.183.852.852 0 00.322.064.834.834 0 00.777-.52.843.843 0 00-.181-.917zm-8.65.432a.85.85 0 00-.358-.536.854.854 0 00-.302-.125.833.833 0 00-.633.125.806.806 0 00-.31.378.85.85 0 00-.047.486.879.879 0 00.125.303.806.806 0 00.232.232.83.83 0 00.303.126.829.829 0 00.76-.23.86.86 0 00.23-.431.829.829 0 000-.329z" fill="#fff"/><path d="M42.577 30.624l-6.732-3.855v-7.306a.842.842 0 00-.434-.736l-10.849-5.991a.841.841 0 00-1.248.736V27.11l-1.408.664L20.542 5.48h.557a.842.842 0 00.841-.842V.842A.842.842 0 0021.1 0H3.347a.842.842 0 00-.842.842v3.795c0 .465.377.842.842.842h.65l-1.51 24.684-2.03 1.045a.841.841 0 00-.456.749v10.3c0 .465.377.842.842.842h41.316a.842.842 0 00.842-.842V31.355a.842.842 0 00-.423-.73zM16.688 10.908a.842.842 0 00-.842.842v15.36l-2.684 1.266 1.4-22.897h4.293l1.411 23.069-2.736 1.29V11.75a.842.842 0 00-.842-.842zm-3.62-9.224h7.189v2.112h-7.19V1.684zm-.849 3.795h.656l-.606 9.918-.607-9.918h.557zM9.66 26.925l-.012-.007-.006-.003a.503.503 0 00-.012-.008c-.003 0-.005-.002-.007-.003l-.006-.004-.006-.003-.007-.003-.006-.003-.007-.004-.005-.002a.24.24 0 00-.013-.006l-.007-.004a.23.23 0 01-.019-.008l-.007-.003-.006-.002a.204.204 0 00-.02-.008l-.004-.001-.01-.004h-.003a.904.904 0 00-.045-.015h-.003l-.009-.003-.005-.002a.19.19 0 00-.008-.002l-.005-.001-.008-.002-.006-.001-.007-.002-.006-.001-.008-.002-.006-.001-.007-.001-.007-.002a.183.183 0 01-.013-.002l-.008-.001H9.34l-.007-.002h-.007l-.007-.002h-.006l-.008-.001h-.006l-.007-.001a.199.199 0 00-.018-.002H9.25l-.006-.001h-.066l-.03.003h-.012l-.003.001h-.008l-.005.001-.008.001-.004.001-.008.001h-.005a.25.25 0 00-.009.002h-.003l-.01.002h-.002l-.01.003h-.003l-.01.002h-.002a.448.448 0 01-.01.003h-.001a.88.88 0 00-.094.027h-.002l-.01.004-.002.001-.01.004h-.002l-.01.005h-.002l-.01.004-.002.002a.871.871 0 00-.056.026l-.21.108V11.75a.842.842 0 10-1.684 0v15.895c0 .073.01.144.027.212l-1.626.837-1.114.574L5.683 5.479h4.293l1.45 23.703-.001.014-1.363.643v-2.195a.842.842 0 00-.403-.719zM4.188 1.684h7.19v2.112h-7.19V1.684zm14.738 39.731H5.87v-4.194h13.054v4.194zm4.388 0h-2.705v-5.036a.842.842 0 00-.842-.842H5.03a.842.842 0 00-.842.842v5.036H1.684V32.47l6.695-3.446v2.142a.842.842 0 00.403.72h.003l.01.007.003.002.01.005.003.002.01.005.003.002.01.005.003.002.01.005.002.001.068.03a.841.841 0 00.643-.015l.02-.01 3.08-1.453 3.186-1.503v2.195a.842.842 0 00.404.72l.003.001a.653.653 0 01.009.005l.004.003.009.005.004.002.009.005a.04.04 0 00.003.002l.01.005.004.002a.293.293 0 00.01.005l.002.001.012.006h.001a.804.804 0 00.04.018h.002a.338.338 0 00.012.006h.001l.013.005.015.005a.841.841 0 00.569-.007.884.884 0 00.02-.008h.003a.434.434 0 00.02-.01h.002a.72.72 0 00.02-.01l6.267-2.956v12.444zm13.641 0h-7.79v-5.87h7.79v5.87zm1.684 0v-6.712a.842.842 0 00-.842-.842h-9.474a.842.842 0 00-.842.842v6.712h-2.484V14.899l9.165 5.061v7.297c0 .301.161.58.423.73l6.731 3.856v9.572h-2.678z" fill="#fff"/><path d="M31.942 21.408l-3.201-1.832a.842.842 0 00-1.26.73v11.302c0 .465.377.842.842.842h3.2a.842.842 0 00.843-.842v-9.47a.842.842 0 00-.424-.73zm-1.26 9.358h-1.517v-9.008l1.517.869v8.14z" fill="#fff"/></svg>