<svg width="44" height="50" fill="none" xmlns="http://www.w3.org/2000/svg"><path d="M29.784 15.65a.973.973 0 00-.784-.66l-4.234-.614-1.894-3.836a.973.973 0 00-1.745 0l-1.892 3.837-4.234.616a.973.973 0 00-.538 1.66l3.064 2.985-.722 4.217a.973.973 0 001.412 1.025l3.786-1.991 3.787 1.99a.973.973 0 001.41-1.029l-.724-4.216 3.063-2.987a.974.974 0 00.245-.997zm-5.033 2.95a.973.973 0 00-.28.86l.477 2.777-2.494-1.31a.973.973 0 00-.906 0l-2.493 1.312.475-2.777a.974.974 0 00-.28-.862l-2.018-1.966 2.788-.406a.973.973 0 00.733-.532l1.246-2.527 1.248 2.526a.973.973 0 00.733.532l2.788.405-2.017 1.967z" fill="#fff"/><path d="M43.87 42.757l-8.043-13.991a17.626 17.626 0 003.884-11.055C39.711 7.945 31.766 0 22 0 12.234 0 4.289 7.945 4.289 17.711c0 4.179 1.455 8.023 3.884 11.055L.13 42.756a.973.973 0 00.974 1.45l6.278-.843 2.409 5.859a.973.973 0 001.742.116l8.12-14.064.004-.007a17.794 17.794 0 004.688 0l.004.007 8.12 14.064a.973.973 0 001.743-.116l2.409-5.858 6.278.843a.973.973 0 00.972-1.45zM10.837 46.65l-1.754-4.265 1.574-2.568a.973.973 0 10-1.66-1.017l-1.59 2.595-4.606.619 6.742-11.727a17.71 17.71 0 008.09 4.59L10.838 46.65zM22 33.476c-8.693 0-15.765-7.072-15.765-15.765C6.235 9.018 13.307 1.946 22 1.946c8.693 0 15.765 7.072 15.765 15.765 0 8.693-7.072 15.765-15.765 15.765zm14.593 7.92l-1.59-2.595a.973.973 0 10-1.66 1.017l1.574 2.568-1.754 4.265-6.797-11.774a17.71 17.71 0 008.091-4.589L41.2 42.016l-4.606-.619z" fill="#fff"/><path d="M22 5.06c-2.172 0-4.314.56-6.196 1.62a.973.973 0 00.954 1.695A10.708 10.708 0 0122 7.007c5.902 0 10.705 4.802 10.705 10.704 0 1.613-.35 3.163-1.04 4.606a.973.973 0 001.757.839 12.54 12.54 0 001.229-5.445c0-6.975-5.675-12.65-12.651-12.65zm9.055 20.088a.973.973 0 00-1.376.02l-.021.023a.973.973 0 001.392 1.36l.026-.027a.973.973 0 00-.02-1.376zm-2.575 2.329a.973.973 0 00-1.322-.383A10.714 10.714 0 0122 28.416c-5.903 0-10.705-4.802-10.705-10.705 0-1.546.322-3.037.958-4.432a.973.973 0 10-1.771-.807 12.55 12.55 0 00-1.133 5.24c0 6.975 5.675 12.65 12.65 12.65 2.133 0 4.242-.54 6.098-1.564a.973.973 0 00.383-1.321zM14.118 9.04a.973.973 0 00-1.376.05l-.021.023a.973.973 0 101.428 1.321l.017-.018a.973.973 0 00-.048-1.375z" fill="#fff"/></svg>