<svg width="47" height="44" fill="none" xmlns="http://www.w3.org/2000/svg"><path d="M46.082 37.82h-2.754V19.828a.918.918 0 00-.918-.918h-8.537V.918A.918.918 0 0032.955 0H25.98a.918.918 0 100 1.836h6.058V18.91H14.963V1.836h2.754a.918.918 0 100-1.836h-3.672a.918.918 0 00-.918.918V18.91H4.59a.918.918 0 00-.918.918V37.82H.918a.918.918 0 00-.918.918v3.672c0 .507.41.918.918.918h45.164A.918.918 0 0047 42.41v-3.672a.918.918 0 00-.918-.918zm-4.59 0h-4.406a.918.918 0 100 1.836h.734v1.836h-9.73v-1.836h.734a.918.918 0 000-1.836h-4.406V20.746h17.074V37.82zM18.91 39.656v1.836H9.18v-1.836h9.73zm1.836 0h5.508v1.836h-5.508v-1.836zM5.508 20.746h17.074V37.82H5.508V20.746zm-3.672 18.91h5.508v1.836H1.836v-1.836zm43.328 1.836h-5.508v-1.836h5.508v1.836z" fill="#fff"/><path d="M16.799 4.59v11.566c0 .507.41.918.918.918h11.566c.507 0 .918-.41.918-.918V4.59a.918.918 0 00-.918-.918H17.717a.918.918 0 00-.918.918zm11.566 9.35l-3.567-3.567 3.567-3.567v7.134zm-1.298 1.298h-7.134l3.567-3.567 3.567 3.567zM23.5 9.075l-3.567-3.567h7.134L23.5 9.075zm-1.298 1.298l-3.567 3.567V6.806l3.567 3.567zm-1.456 24.693V23.5a.918.918 0 00-.918-.918H8.262a.918.918 0 00-.918.918v11.566c0 .507.411.918.918.918h11.566a.918.918 0 00.918-.918zM9.18 25.716l3.567 3.567L9.18 32.85v-7.134zm1.298-1.298h7.134l-3.567 3.567-3.567-3.567zm3.567 6.163l3.567 3.567h-7.134l3.567-3.567zm1.298-1.298l3.567-3.567v7.134l-3.567-3.567zM26.254 23.5v11.566c0 .507.41.918.918.918h11.566a.918.918 0 00.918-.918V23.5a.918.918 0 00-.918-.918H27.172a.918.918 0 00-.918.918zm11.566 9.35l-3.567-3.567 3.567-3.567v7.134zm-1.298 1.298h-7.134l3.567-3.567 3.567 3.567zm-3.567-6.163l-3.567-3.567h7.134l-3.567 3.567zm-1.298 1.298L28.09 32.85v-7.134l3.567 3.567zM21.848 1.836a.918.918 0 100-1.836.918.918 0 100 1.836zM32.955 37.82a.918.918 0 10-.002 1.836.918.918 0 00.002-1.836z" fill="#fff"/></svg>