<svg width="50" height="48" fill="none" xmlns="http://www.w3.org/2000/svg"><path d="M48.54 36.552a.97.97 0 00-1.21.645c-1.494 4.887-6.671 8.863-11.541 8.863-3.195 0-5.902-2.04-6.11-5.354.009-3.133 1.376-5.912 3.601-8.101 2.19-2.154 5.206-3.732 8.326-3.732 1.678 0 3.135.482 4.213 1.394a.97.97 0 001.253-1.48c-1.433-1.213-3.323-1.854-5.466-1.854-.809 0-1.63.092-2.451.269V7.52a3.593 3.593 0 00-3.59-3.589h-6.448V3.06A3.063 3.063 0 0026.057 0h-.013a3.063 3.063 0 00-3.06 3.06v.871h-7.55V3.06A3.063 3.063 0 0012.374 0h-.013A3.063 3.063 0 009.3 3.06v.871H3.59A3.593 3.593 0 000 7.521v30.564a3.593 3.593 0 003.589 3.59h24.247a7.498 7.498 0 001.37 3.28C30.66 46.92 32.997 48 35.787 48c2.765 0 5.676-1.064 8.199-2.997 2.513-1.925 4.36-4.496 5.197-7.24a.97.97 0 00-.644-1.21zM24.924 3.06a1.12 1.12 0 011.12-1.119h.013c.617 0 1.12.502 1.12 1.12l-.001 3.81c0 .599-.523 1.125-1.119 1.125-.601 0-1.133-.512-1.133-1.12V3.06zm-13.683 0a1.12 1.12 0 011.12-1.119h.013c.618 0 1.12.502 1.12 1.12v3.816c0 .596-.523 1.119-1.123 1.119-.6-.003-1.13-.513-1.13-1.12V3.06zm-9.3 4.461a1.65 1.65 0 011.648-1.649H9.3v1.005c.022.816.321 1.578.903 2.158.576.574 1.36.901 2.172.901a3.063 3.063 0 003.058-3.06V5.872h7.55v1.005c0 1.666 1.412 3.06 3.073 3.06a3.063 3.063 0 003.06-3.06V5.87h6.449c.909 0 1.648.74 1.648 1.65v6.449H1.94V7.52zm0 30.565V15.91h35.273v11.872c-4.867 1.866-9.168 6.588-9.474 11.952H3.589a1.65 1.65 0 01-1.649-1.649z" fill="#fff"/><path d="M39.041 32.176l-1.416 4.656-2.518 1.543a.97.97 0 00-.32 1.334.98.98 0 001.334.32l2.832-1.736a.97.97 0 00.421-.544l1.523-5.008a.97.97 0 00-1.856-.565zm-14.027 3.431H12.39a.97.97 0 000 1.94h12.625a.97.97 0 000-1.94zm-15.964.599a.979.979 0 00-.968-.596.978.978 0 00-.863.709c-.231.83.699 1.526 1.433 1.09a.978.978 0 00.398-1.203zm15.754 7.442h-8.467a.97.97 0 000 1.94h8.467a.97.97 0 000-1.94zm2.36-19.856a.97.97 0 00-.784-.66l-3.934-.572-1.76-3.566c-.35-.707-1.391-.707-1.74 0l-1.76 3.566-3.935.572c-.78.113-1.103 1.103-.538 1.654l2.848 2.776-.672 3.919c-.133.776.708 1.39 1.407 1.023l3.52-1.85 3.52 1.85c.698.367 1.54-.247 1.407-1.023l-.672-3.92 2.847-2.775a.97.97 0 00.246-.994zm-4.813 2.736a.97.97 0 00-.279.86l.427 2.484-2.232-1.173a.97.97 0 00-.902 0l-2.232 1.173.426-2.485a.97.97 0 00-.279-.858l-1.805-1.76 2.495-.363a.97.97 0 00.73-.53l1.116-2.26 1.116 2.26a.97.97 0 00.73.53l2.495.363-1.806 1.76zm27.071 6.1a.98.98 0 00-1.14-.762.979.979 0 00-.762 1.14.98.98 0 001.14.762.98.98 0 00.762-1.14z" fill="#fff"/></svg>