<svg width="47" height="48" fill="none" xmlns="http://www.w3.org/2000/svg"><path d="M37.28 37.638a.915.915 0 10-1.111 1.454l1.563 1.195a.912.912 0 001.234-.113l2.988-3.3a.915.915 0 00-1.356-1.228l-2.423 2.676-.895-.684z" fill="#fff"/><path d="M46.993 32.755a.915.915 0 00-.834-.891c-2.177-.19-4.855-1.652-6.823-3.724a.915.915 0 00-1.326 0 13.857 13.857 0 01-2.969 2.358c-1.857-2.074-4.143-3.601-6.822-4.563a18.641 18.641 0 00-.704-.237c2.265-2.26 3.79-5.23 3.79-7.893v-1.438a3.031 3.031 0 001.822-2.777 3.03 3.03 0 00-1.951-2.827A11.286 11.286 0 0023.07 1.09 1.375 1.375 0 0021.728 0h-3.315c-.637 0-1.172.436-1.326 1.025a11.31 11.31 0 00-8.335 9.738A3.03 3.03 0 006.8 13.59c0 1.242.752 2.312 1.825 2.778v1.437c0 2.661 1.524 5.632 3.79 7.893a18.868 18.868 0 00-.732.247c-2.999 1.082-5.502 2.873-7.463 5.346C2.334 33.669.994 36.606.236 40.02c-.27 1.22-.473 2.754.36 3.79.812 1.013 2.266 1.142 3.443 1.142h5.984a.915.915 0 000-1.83H4.04c-1.095 0-1.773-.153-2.017-.457-.259-.322-.259-1.079 0-2.25.95-4.282 3.276-9.522 8.877-12.168-.172 3.09 1.502 5.11 2.567 6.393a.915.915 0 001.341.071l5.156-5.014 5.159 5.014a.915.915 0 001.342-.072c1.063-1.283 2.735-3.305 2.564-6.389a14.599 14.599 0 014.296 3.086c-.737.286-1.462.468-2.138.527a.915.915 0 00-.835.89c-.077 3.27.468 5.614 1.943 8.357.013.023.511.917 1.288 2.013H18.306a.915.915 0 000 1.83h16.729c1.103 1.218 2.404 2.256 3.637 2.256 2.976 0 6.345-6.038 6.378-6.098 1.472-2.744 2.017-5.087 1.944-8.357zm-17.685-22.19h-5.037C23.32 8.08 23.14 6.03 23.107 3.02a9.459 9.459 0 016.201 7.545zM18.87 1.83h2.401c.006 3.54.095 5.94 1.054 8.735h-4.508c.957-2.796 1.047-5.194 1.053-8.735zm-1.836 1.118c-.03 3.049-.205 5.111-1.162 7.617H10.62c.522-3.511 3.046-6.502 6.414-7.617zm-7.207 9.447h6.12c.054.044.106.05.15 0h14.005a1.196 1.196 0 010 2.393H9.827a1.198 1.198 0 110-2.393zm.627 5.41v-1.188h19.02v1.188c0 3.488-3.378 7.801-7.23 9.231-1.686.627-2.883.626-4.572-.002-3.845-1.435-7.218-5.749-7.218-9.23zM14.251 32.7c-.947-1.236-1.858-2.86-1.42-5.215.403-.13.82-.25 1.253-.354a12.294 12.294 0 002.949 1.617c.332.123.651.225.964.31L14.25 32.7zm11.426 0l-3.748-3.644c.309-.083.624-.184.951-.305a12.29 12.29 0 002.964-1.62c.427.103.844.221 1.252.353.44 2.353-.472 3.977-1.419 5.215zm17.76 7.546c-1.082 2.019-3.615 5.133-4.765 5.133-1.15 0-3.683-3.114-4.765-5.134-1.21-2.248-1.706-4.123-1.732-6.675.986-.188 2.014-.557 3.024-1.07a15.415 15.415 0 003.473-2.443c1.948 1.817 4.32 3.099 6.497 3.513-.029 2.553-.525 4.427-1.732 6.676z" fill="#fff"/><path d="M14.165 43.123a.915.915 0 000 1.83h.005c.505 0 .912-.41.912-.915a.917.917 0 00-.918-.914z" fill="#fff"/></svg>