<svg width="41" height="49" fill="none" xmlns="http://www.w3.org/2000/svg"><path d="M41 35.054a3.684 3.684 0 00-1.213-2.734A3.68 3.68 0 0041 29.588a3.694 3.694 0 00-3.688-3.692H25.626c1.05-2.853 2.268-7.65.18-10.832-.77-1.173-1.459-1.886-2.725-2.825-.381-.283-1.274-.947-2.183-.572-.872.359-1.134 1.401-1.265 2.268l-.007.048c-.254 1.666-.725 4.767-1.848 7.412-1.286 3.029-2.969 4.502-5.146 4.502h-2a3.22 3.22 0 00-3.178-2.716H3.253a3.217 3.217 0 00-3.214 3.214v5.048a.957.957 0 101.914 0v-5.048c0-.717.583-1.3 1.3-1.3h4.201c.718 0 1.302.583 1.302 1.3v18.691c0 .717-.584 1.3-1.302 1.3H3.253c-.717 0-1.3-.583-1.3-1.3v-5.048a.957.957 0 10-1.914 0v5.048A3.217 3.217 0 003.253 48.3h4.201a3.22 3.22 0 003.178-2.715s2.917 0 3.123.014l.038.068c.12.211.3.53.614.95C15.508 48.089 18.183 49 20.03 49h15.178a3.355 3.355 0 003.35-3.352c0-.556-.137-1.079-.377-1.54A3.696 3.696 0 0041 40.52a3.68 3.68 0 00-1.213-2.732A3.684 3.684 0 0041 35.054zM26.516 47.086H20.03c-1.48 0-3.468-.785-4.09-1.617-.24-.32-.373-.555-.479-.742-.597-1.057-1.087-1.059-2.704-1.056h-2.085V27.81h1.961c2.988 0 5.312-1.908 6.908-5.669 1.217-2.866 1.712-6.122 1.978-7.872l.008-.048c.045-.301.094-.504.136-.638.072.045.164.107.278.192 1.09.808 1.619 1.354 2.266 2.339 1.796 2.737.225 7.584-.534 9.54-.091.233-.368.945.05 1.556.41.6 1.15.6 1.392.6h1.155a3.68 3.68 0 00.777 4.528 3.684 3.684 0 00.02 5.45 3.685 3.685 0 00.073 5.53 3.338 3.338 0 00-.623 3.767zm8.691 0h-5.666a1.437 1.437 0 010-2.874h5.666a1.437 1.437 0 010 2.874zm2.105-4.788H29.54a1.776 1.776 0 010-3.552h7.77a1.776 1.776 0 010 3.552zm0-5.466H29.54a1.778 1.778 0 010-3.555h7.77a1.778 1.778 0 010 3.555zm0-5.47H29.5a1.777 1.777 0 010-3.552h7.812a1.776 1.776 0 010 3.552z" fill="#fff"/><path d="M20.783 29.475a.957.957 0 00-.818 1.079c.203 1.48-.082 2.775-.825 3.746-.904 1.183-2.463 1.925-4.632 2.206a.957.957 0 00.246 1.898c2.694-.349 4.681-1.339 5.907-2.941 1.059-1.386 1.474-3.173 1.2-5.17a.957.957 0 00-1.078-.818zm1.304-22.176a.957.957 0 00.957-.957V.957a.957.957 0 10-1.914 0v5.385c0 .529.429.957.957.957zM29 9.37a.956.956 0 001.327-.268l2.968-4.472A.957.957 0 1031.7 3.572l-2.967 4.47A.957.957 0 0029 9.37zm-15.153-.269a.956.956 0 101.595-1.059l-2.97-4.47a.957.957 0 10-1.595 1.059l2.97 4.47zM.996 36.7a.96.96 0 000-1.916.957.957 0 00-.957.957v.005c0 .529.429.954.957.954z" fill="#fff"/></svg>