<svg width="52" height="34" fill="none" xmlns="http://www.w3.org/2000/svg"><path d="M50.717 18.48l-2.311-.735v-6.879c0-1.093-.89-1.983-1.983-1.983H41.35a.762.762 0 100 1.524h5.073a.46.46 0 01.459.459v1.075h-5.636a2.799 2.799 0 00-2.796 2.796v1.531a2.8 2.8 0 002.796 2.796h6.28l2.73.868a.316.316 0 01.22.303v1.19h-.73a.762.762 0 100 1.524h.73v.978a.318.318 0 01-.317.317h-2.645a6.218 6.218 0 00-5.656-3.647 6.218 6.218 0 00-5.655 3.647h-2.205V14.217c0-2.1 1.71-3.81 3.81-3.81h.496a.762.762 0 100-1.524h-.496a5.34 5.34 0 00-5.334 5.334v1.324h-1.66c-.858 0-1.556.698-1.556 1.556v4.329h-5.096V20.19h1.215a.762.762 0 00.634-.34l8.235-12.36h.85c.611 0 1.193-.231 1.638-.651l2.278-2.153 3.447-1.047a.762.762 0 00.54-.729V.762c0-.42-.34-.762-.762-.762h-4.263c-.612 0-1.194.231-1.638.651L34.147 2.72h-10.23a.762.762 0 100 1.524H34.45a.762.762 0 00.524-.208l2.408-2.276a.858.858 0 01.592-.235h3.502v.82l-3.078.935a.763.763 0 00-.302.175L35.687 5.73a.858.858 0 01-.591.235H7.12a.762.762 0 00-.565.252l-3.531 3.919a.861.861 0 11-1.28-1.154l4.014-4.455a.863.863 0 01.64-.284h14.474a.762.762 0 000-1.524H6.398c-.674 0-1.32.287-1.771.788L.612 7.963a2.386 2.386 0 003.543 3.193l.082-.09.967 1.174v9.185h-.41a4.271 4.271 0 00-3.79 2.291l-.492.936a.762.762 0 00.674 1.116H5.7a6.228 6.228 0 00-.089 1.04 6.222 6.222 0 006.212 6.211 6.221 6.221 0 006.211-6.211c0-.355-.031-.702-.089-1.04h2.321V26.9c0 .915.745 1.66 1.66 1.66H23.4a.762.762 0 100-1.524h-1.475a.136.136 0 01-.136-.136v-1.132h8.654V26.9a.136.136 0 01-.136.136h-3.861a.762.762 0 100 1.523h3.861c.915 0 1.66-.744 1.66-1.66v-1.131h3.769a6.216 6.216 0 00-.09 1.04 6.222 6.222 0 006.212 6.211 6.221 6.221 0 006.212-6.211c0-.355-.032-.702-.09-1.04h2.179A1.843 1.843 0 0052 23.927v-3.692c0-.806-.516-1.511-1.283-1.755zm-10.744-2.212v-1.53c0-.702.571-1.273 1.273-1.273h5.636v4.076h-5.636a1.274 1.274 0 01-1.273-1.273zm-9.191.83c0-.019.014-.033.032-.033h1.66v4.36h-1.692v-4.328zm-8.144 4.327h-7.722a6.161 6.161 0 00-.476-.248v-.987h8.198v1.235zm-6.26 6.145h.069a4.662 4.662 0 01-.818 1.968l-.046-.047a.762.762 0 00-1.078 1.078l.047.046a4.66 4.66 0 01-1.968.818v-.068a.762.762 0 10-1.524 0v.068a4.66 4.66 0 01-1.968-.818l.046-.046a.762.762 0 10-1.077-1.078l-.047.047a4.663 4.663 0 01-.817-1.968h.068a.762.762 0 100-1.524h-.068a4.663 4.663 0 01.817-1.968l.047.047a.762.762 0 001.077-1.078l-.046-.046a4.661 4.661 0 011.968-.818v.068a.762.762 0 101.524 0v-.068a4.66 4.66 0 011.968.818l-.047.046a.762.762 0 101.078 1.078l.046-.047c.412.573.699 1.243.818 1.968h-.069a.762.762 0 000 1.524zm1.71-20.081l-6.28 10.374-2.863-3.476 4.141-6.898h5.001zm6.802 0l-6.71 11.178h-5.078l6.766-11.178h5.022zM11.522 19.913c.145.175.36.277.588.277h.806v.505a6.173 6.173 0 00-3.594.428v-3.882l2.2 2.672zm13.447-1.246h-5.012l6.71-11.178h5.748L24.97 18.667zM7.46 7.489h3.85l-3.391 5.65-2.65-3.218L7.46 7.489zm-.732 6.6L7.8 15.392v6.034H6.727V14.09zM2.456 24.245a2.751 2.751 0 012.338-1.295H6.96a6.22 6.22 0 00-.794 1.295h-3.71zm15.021 0a6.22 6.22 0 00-.794-1.295h15.791v1.295H17.477zm28.938 3.326h.068a4.662 4.662 0 01-.817 1.968l-.047-.047a.762.762 0 00-1.077 1.078l.046.046a4.66 4.66 0 01-1.968.818v-.068a.762.762 0 10-1.523 0v.068a4.661 4.661 0 01-1.969-.818l.047-.046a.762.762 0 10-1.078-1.078l-.046.047a4.661 4.661 0 01-.818-1.968h.069a.762.762 0 100-1.524h-.069a4.66 4.66 0 01.818-1.968l.046.047a.76.76 0 001.078 0 .762.762 0 000-1.078l-.047-.046a4.66 4.66 0 011.969-.818v.068a.762.762 0 101.523 0v-.068a4.66 4.66 0 011.968.818l-.046.046a.762.762 0 101.077 1.078l.047-.047a4.66 4.66 0 01.818 1.968h-.069a.762.762 0 000 1.524z" fill="#fff"/><path d="M41.858 24.306a2.505 2.505 0 00-2.502 2.502 2.505 2.505 0 002.502 2.502 2.505 2.505 0 002.503-2.502 2.505 2.505 0 00-2.502-2.502zm0 3.48a.98.98 0 010-1.957.98.98 0 010 1.957zm-30.037-3.48a2.505 2.505 0 00-2.502 2.502 2.505 2.505 0 002.502 2.502 2.505 2.505 0 002.502-2.502 2.505 2.505 0 00-2.502-2.502zm0 3.48a.98.98 0 010-1.957.98.98 0 010 1.957z" fill="#fff"/></svg>