<svg width="54" height="34" fill="none" xmlns="http://www.w3.org/2000/svg"><path d="M51.721 19.138l-2.357-.75v-7.015a2.024 2.024 0 00-2.022-2.021H42.17a.777.777 0 100 1.553h5.173a.47.47 0 01.469.469v1.096h-5.748a2.854 2.854 0 00-2.851 2.851v1.562a2.855 2.855 0 002.85 2.85h6.405l2.784.886a.322.322 0 01.225.308v1.215h-.745a.777.777 0 100 1.553h.745v.998a.324.324 0 01-.323.323h-2.698a6.34 6.34 0 00-5.767-3.72 6.34 6.34 0 00-5.768 3.72h-2.248V14.791a3.89 3.89 0 013.885-3.886h.506a.777.777 0 100-1.553h-.506a5.445 5.445 0 00-5.439 5.439v4.458h-1.693c-.875 0-1.587.711-1.587 1.586v1.307H24.56v-1.754c4.383-.5 7.8-4.23 7.8-8.746v-.174c0-4.856-3.95-8.806-8.805-8.806h-3.038V1.354C20.517.607 19.91 0 19.163 0h-5.965c-.747 0-1.354.607-1.354 1.354v1.308H8.805a8.753 8.753 0 00-5.017 1.571.777.777 0 10.886 1.276 7.207 7.207 0 014.131-1.293h4.529v14.677H8.805c-3.998 0-7.251-3.253-7.251-7.252v-.173c0-1.404.403-2.768 1.167-3.943a.777.777 0 00-1.303-.846A8.772 8.772 0 000 11.468v.174c0 4.515 3.417 8.246 7.801 8.746v1.754h-2.91c-1.628 0-3.11.895-3.867 2.336l-.501.954a.777.777 0 00.688 1.138h4.602c-.059.345-.09.7-.09 1.06a6.345 6.345 0 006.333 6.335c3.49 0 6.335-2.843 6.335-6.334 0-.362-.032-.716-.09-1.061h2.366v1.154c0 .933.76 1.693 1.693 1.693h1.504a.777.777 0 100-1.554H22.36a.139.139 0 01-.14-.139V26.57h8.826v1.154a.139.139 0 01-.138.14H26.97a.777.777 0 100 1.553h3.938c.933 0 1.692-.76 1.692-1.693V26.57h3.844c-.059.345-.091.7-.091 1.06a6.345 6.345 0 006.334 6.335 6.345 6.345 0 006.335-6.334c0-.362-.033-.716-.091-1.061h2.221a1.88 1.88 0 001.878-1.877v-3.766a1.87 1.87 0 00-1.309-1.789zm-10.956-2.255V15.32c0-.715.582-1.297 1.298-1.297h5.747v4.156h-5.747a1.299 1.299 0 01-1.298-1.297zm-9.373 3.952c0-.018.014-.033.033-.033h1.693v1.34h-1.727v-1.307zm-16.18 1.307a6.306 6.306 0 00-1.25-.553v-1.142h4.436v1.695h-3.187zm1.491 6.266h.07a4.754 4.754 0 01-.834 2.007l-.047-.048a.777.777 0 00-1.099 1.099l.048.047a4.754 4.754 0 01-2.008.834v-.07a.777.777 0 10-1.553 0v.07a4.756 4.756 0 01-2.008-.834l.048-.047a.777.777 0 00-1.098-1.099l-.048.048a4.753 4.753 0 01-.834-2.007h.07a.777.777 0 100-1.554h-.07c.122-.74.413-1.422.834-2.007l.048.047a.774.774 0 001.098 0 .777.777 0 000-1.098l-.048-.048a4.755 4.755 0 012.008-.834v.07a.777.777 0 101.553 0v-.07c.74.122 1.423.414 2.008.834l-.048.048a.777.777 0 101.099 1.098l.047-.047c.42.584.713 1.267.834 2.007h-.07a.777.777 0 100 1.554zm-4.646-7.111c-.966 0-1.882.218-2.702.606v-1.456h3.052v.86a6.373 6.373 0 00-.35-.01zm5.538-8.867h-2.708v-1.75h2.708v1.75zm0-3.304h-2.708v-1.75h2.708v1.75zm-2.708 4.857h2.708v1.75h-2.708v-1.75zm5.066 6.464h3.053v1.695h-3.053v-1.695zm10.854-8.98v.175c0 3.998-3.253 7.251-7.252 7.251H19.15V4.216h4.406c3.999 0 7.252 3.253 7.252 7.252zm-17.41-9.913h5.566v1.108h-5.566V1.554zm4.198 2.662v1.607h-2.708V4.216h2.708zm-2.708 13.07h2.708v1.607h-2.708v-1.606zm-12.382 7.73a2.805 2.805 0 012.386-1.32h2.208a6.337 6.337 0 00-.81 1.32H2.505zm14.51-1.32h16.103v1.32H17.824a6.34 6.34 0 00-.81-1.32zm30.32 4.712h.069a4.755 4.755 0 01-.834 2.007l-.047-.048a.777.777 0 00-1.1 1.099l.048.047a4.755 4.755 0 01-2.007.834v-.07a.777.777 0 10-1.553 0v.07a4.755 4.755 0 01-2.008-.834l.048-.047a.777.777 0 00-1.099-1.099l-.047.048a4.752 4.752 0 01-.834-2.007h.07a.777.777 0 100-1.554h-.07c.121-.74.413-1.422.834-2.007l.047.047a.775.775 0 001.099 0 .777.777 0 000-1.098l-.048-.048a4.755 4.755 0 012.008-.834v.07a.777.777 0 101.553 0v-.07c.74.122 1.423.414 2.008.834l-.048.048a.777.777 0 001.099 1.098l.047-.047c.42.584.713 1.267.834 2.007h-.07a.777.777 0 000 1.554z" fill="#fff"/><path d="M42.687 25.08a2.554 2.554 0 00-2.551 2.55 2.554 2.554 0 002.551 2.552 2.554 2.554 0 002.552-2.551 2.554 2.554 0 00-2.552-2.552zm0 3.549a.999.999 0 010-1.996.999.999 0 010 1.996zM12.056 25.08a2.554 2.554 0 00-2.551 2.55 2.554 2.554 0 002.551 2.552 2.554 2.554 0 002.552-2.551 2.554 2.554 0 00-2.552-2.552zm0 3.549a.999.999 0 010-1.996 1 1 0 010 1.996z" fill="#fff"/></svg>