<svg width="40" height="41" fill="none" xmlns="http://www.w3.org/2000/svg"><path d="M7.902 26.354c-.7 0-1.247.588-1.247 1.338 0 .75.548 1.338 1.247 1.338.699 0 1.246-.588 1.246-1.338 0-.75-.547-1.338-1.246-1.338zm4.329 0c-.7 0-1.247.588-1.247 1.338 0 .75.548 1.338 1.247 1.338.699 0 1.246-.588 1.246-1.338 0-.75-.547-1.338-1.246-1.338zm19.742 1.406h-5.351a1.003 1.003 0 100 2.006h5.35a1.003 1.003 0 000-2.007zm0-2.877h-5.351a1.003 1.003 0 100 2.007h5.35a1.003 1.003 0 000-2.007zM19.684 3.125A2.899 2.899 0 0016.79 6.02a2.899 2.899 0 002.895 2.895A2.899 2.899 0 0022.58 6.02a2.899 2.899 0 00-2.896-2.895zm0 3.784a.89.89 0 010-1.778.89.89 0 010 1.778z" fill="#fff"/><path d="M39.997 39.054l-1.335-17.62V1.004C38.662.448 38.213 0 37.66 0h-4.415c-.554 0-1.003.45-1.003 1.003V2.81h-6.823V1.605c0-.554-.45-1.003-1.003-1.003H11.17c-.555 0-1.004.45-1.004 1.003V2.81H7.76V1.003C7.76.45 7.31 0 6.756 0H2.34c-.554 0-1.003.45-1.003 1.003v20.43L.003 39.055a1.003 1.003 0 001 1.08h6.489c.432 0 .815-.277.952-.686l1.242-3.729h20.628l1.242 3.729c.137.41.52.686.952.686h6.489a1.003 1.003 0 001-1.08zm-5.75-37.047h2.409v18.461h-2.408V2.007zm-2.006 2.809v2.408h-6.823V4.816h6.823zM12.174 2.609H23.41V9.43H12.174V2.61zm4.615 9.03v3.276l-.802.535-.803-.535v-3.276h1.605zm-3.612-.2v4.012c0 .336.168.65.447.835l1.806 1.204a1.003 1.003 0 001.113 0l1.806-1.204a1 1 0 00.447-.835v-4.013h5.619c.554 0 1.003-.45 1.003-1.003V9.23h6.823v11.237H7.759V9.231h2.408v1.204c0 .554.45 1.003 1.004 1.003h2.006zm-3.01-6.623v2.408H7.76V4.816h2.408zm-6.822-2.81h2.408v18.462H3.345V2.007zM33.23 38.128l-1.242-3.729a1.003 1.003 0 00-.952-.686H8.963c-.432 0-.815.277-.952.686L6.77 38.127H2.086L3.27 22.475h33.46l1.185 15.652h-4.683z" fill="#fff"/></svg>