<svg width="43" height="39" fill="none" xmlns="http://www.w3.org/2000/svg"><path d="M7.767 27.79H.827a.826.826 0 00-.827.826v9.558c0 .456.37.826.826.826h6.94c.457 0 .827-.37.827-.826v-9.558a.826.826 0 00-.826-.826zm-.826 9.557H1.653v-7.904H6.94v7.904zm12.036-19.83h-6.94a.826.826 0 00-.827.826v19.83c0 .457.37.827.826.827h6.94c.457 0 .827-.37.827-.826v-19.83a.826.826 0 00-.826-.827zm-.826 19.83h-5.288V19.17h5.288v18.178zm12.086-17.186h-6.941a.826.826 0 00-.826.826v17.187c0 .456.37.826.826.826h6.94c.457 0 .827-.37.827-.826V20.987a.826.826 0 00-.826-.826zm-.827 17.186h-5.288V21.814h5.288v15.533z" fill="#fff"/><path d="M4.297 24.623a3.474 3.474 0 003.47-3.47 3.45 3.45 0 00-.428-1.668l6.242-5.72a3.45 3.45 0 001.925.585 3.472 3.472 0 003.091-1.896l4.7 1.103a3.474 3.474 0 003.47 3.437 3.474 3.474 0 003.47-3.47 3.45 3.45 0 00-.408-1.63l6.219-5.562a3.451 3.451 0 001.96.609 3.474 3.474 0 003.47-3.47A3.474 3.474 0 0038.009 0a3.474 3.474 0 00-3.47 3.47c0 .59.148 1.144.408 1.63l-6.22 5.562a3.448 3.448 0 00-1.96-.609 3.473 3.473 0 00-3.09 1.896l-4.7-1.104a3.474 3.474 0 00-3.47-3.436 3.474 3.474 0 00-3.47 3.47c0 .604.155 1.173.428 1.668l-6.242 5.72a3.45 3.45 0 00-1.925-.585 3.474 3.474 0 00-3.47 3.47 3.474 3.474 0 003.47 3.47zm33.711-22.97a1.82 1.82 0 011.818 1.817 1.82 1.82 0 01-1.818 1.818 1.82 1.82 0 01-1.817-1.818 1.82 1.82 0 011.817-1.817zM26.766 11.706a1.82 1.82 0 011.818 1.817 1.82 1.82 0 01-1.818 1.818 1.82 1.82 0 01-1.818-1.818 1.82 1.82 0 011.818-1.817zm-11.26-2.644a1.82 1.82 0 011.818 1.817 1.82 1.82 0 01-1.818 1.818 1.82 1.82 0 01-1.817-1.818 1.82 1.82 0 011.817-1.817zM4.296 19.335a1.82 1.82 0 011.818 1.817 1.82 1.82 0 01-1.817 1.818 1.82 1.82 0 01-1.818-1.817 1.82 1.82 0 011.818-1.818z" fill="#fff"/><path d="M41.479 10.108h-6.94a.826.826 0 00-.827.826v9.902a.826.826 0 001.652 0V11.76h5.289v25.586h-5.288v-9.075a.826.826 0 10-1.653 0v9.902c0 .456.37.826.826.826h6.94c.457 0 .827-.37.827-.826v-27.24a.826.826 0 00-.826-.826z" fill="#fff"/><path d="M34.538 25.38c.217 0 .43-.088.584-.242a.832.832 0 00.242-.584.829.829 0 00-1.41-.584.831.831 0 00-.242.584c0 .218.088.43.242.584a.832.832 0 00.584.243z" fill="#fff"/></svg>