<svg width="53" height="39" fill="none" xmlns="http://www.w3.org/2000/svg"><path d="M51.026 24.395c.561 0 1.016-.455 1.016-1.017V5.083c0-.562-.455-1.017-1.016-1.017H29.35v-3.05C29.35.455 28.895 0 28.333 0h-5.082a1.017 1.017 0 000 2.033h4.066v20.329h-14.23V2.032h1.016a1.016 1.016 0 100-2.032H12.07c-.561 0-1.016.455-1.016 1.016V6.1H4.79c-.071 0-.142.008-.21.022a1.015 1.015 0 00-.209-.022h-.903a1.017 1.017 0 000 2.033h.306v2.033h-.306a1.017 1.017 0 000 2.033h.306v2.033h-.306a1.017 1.017 0 000 2.033h.306v2.032h-.306a1.017 1.017 0 000 2.033h.306v2.033h-.306a1.017 1.017 0 000 2.033h.306v5.082c0 .561.455 1.017 1.016 1.017h6.264v2.033H1.016c-.561 0-1.016.455-1.016 1.016v4.066c0 .561.455 1.016 1.016 1.016h50.01c.561 0 1.016-.455 1.016-1.016v-4.066c0-.561-.455-1.016-1.016-1.016h-3.05v-8.132h3.05zM50.009 6.099v16.263H29.35V6.099h20.66zM5.807 8.132h5.247v15.246c0 .562.455 1.017 1.016 1.017h11.181v4.066H5.807V8.132zm7.28 22.362h3.05v2.033h-3.05v-2.033zM23.25 34.56v2.032H20.2V34.56h3.05zm5.082 0v2.032h-3.049V34.56h3.05zm5.083 0v2.032h-3.05V34.56h3.05zm-31.383 0h16.136v2.032H2.033V34.56zm47.976 2.032H35.45V34.56h14.56v2.032zm-4.066-8.131h-1.017a1.017 1.017 0 000 2.033h1.017v2.033H18.17v-2.033h17.61a1.017 1.017 0 000-2.033H25.284v-4.066h20.66v4.066z" fill="#fff"/><path d="M43.302 10.165h3.658a1.017 1.017 0 000-2.033h-3.658a1.016 1.016 0 100 2.033zm3.658 2.033h-.002a1.016 1.016 0 100 2.032 1.016 1.016 0 00.001-2.032zM34.433 20.33h6.099a3.053 3.053 0 003.05-3.05v-2.034a3.053 3.053 0 00-3.05-3.049h-6.099a3.053 3.053 0 00-3.05 3.05v2.032a3.053 3.053 0 003.05 3.05zm-1.016-5.083c0-.56.456-1.017 1.016-1.017h6.099c.56 0 1.016.456 1.016 1.016v2.033c0 .561-.456 1.017-1.016 1.017h-6.099c-.56 0-1.016-.456-1.016-1.017v-2.033zm-17.28-7.115h3.658a1.017 1.017 0 000-2.033h-3.658a1.016 1.016 0 100 2.033zm0 4.066a1.016 1.016 0 100-2.033 1.016 1.016 0 000 2.033zm0 8.132h3.658a1.017 1.017 0 000-2.033h-3.658a1.016 1.016 0 100 2.033zm0-4.067h3.658a1.016 1.016 0 000-2.033h-3.658a1.017 1.017 0 000 2.033zm2.541-14.23a1.016 1.016 0 100-2.033 1.016 1.016 0 100 2.033zm21.675 28.461a1.017 1.017 0 000-2.033h-.001a1.016 1.016 0 100 2.033z" fill="#fff"/></svg>