<svg width="47" height="43" fill="none" xmlns="http://www.w3.org/2000/svg"><path d="M46.082 1.815A1.836 1.836 0 0044.246 0h-5.095a1.836 1.836 0 00-1.835 1.815l-.474 20.35-2.639-.708-.422-16.203a1.607 1.607 0 00-1.606-1.582h-3.821c-.878 0-1.583.695-1.606 1.582L26.38 19.36l-11.76-3.15a.918.918 0 00-.475 1.773l.355.095v5.85l-2.953-.791a.918.918 0 10-.475 1.773l12.748 3.416v1.049H2.872v-6.662l.22.059a.918.918 0 00.475-1.773l-2.411-.647a.918.918 0 10-.475 1.774l.355.095v19.087c0 .507.41.918.918.918h44.128a.918.918 0 00.918-.94l-.918-39.471zm-1.607 9.861h-5.552l.122-5.25h5.308l.122 5.25zm-5.595 1.836h5.638l.042 1.837h-5.723l.043-1.837zm.278-11.676h5.082c.003.004.006.01.007.021l.063 2.733h-5.222l.063-2.733c0-.011.004-.017.007-.021zM28.482 9.179h3.565l.16 6.17h-3.886l.161-6.17zm3.47-3.672l.047 1.836h-3.47l.049-1.836h3.373zm-3.678 11.678h3.981l.099 3.777-4.15-1.112.07-2.665zM2.872 31.21H23.82v9.18h-1.977v-6.426a.918.918 0 00-.918-.918H9.91a.918.918 0 00-.918.918v6.425h-6.12V31.21zm13.464 3.672h3.671v5.507h-3.671v-5.507zM14.5 40.39h-3.672v-5.507H14.5v5.507zm26.69 0v-1.627a.918.918 0 10-1.835 0v1.627h-13.7V28.81a.919.919 0 00.355-1.797l-9.674-2.593v-5.85l23.02 6.168v5.763a.918.918 0 101.835 0v-5.279a.919.919 0 00.355-1.797l-2.878-.771.127-5.47h5.808l.54 23.206H41.19z" fill="#fff"/><path d="M29.446 33.714a.918.918 0 00-.918.918v3.005a.918.918 0 001.836 0v-3.005a.918.918 0 00-.918-.918zm5.508 0a.918.918 0 00-.918.918v3.005a.918.918 0 001.836 0v-3.005a.918.918 0 00-.918-.918zm0-7.01a.918.918 0 00-.918.918v3.004a.918.918 0 101.836 0v-3.004a.918.918 0 00-.918-.918zM7.067 23.837a.918.918 0 10.504-1.765.918.918 0 00-.504 1.765zm33.206 9.877a.918.918 0 10.917.918.918.918 0 00-.917-.918z" fill="#fff"/></svg>