<svg width="50" height="45" fill="none" xmlns="http://www.w3.org/2000/svg"><path d="M48.047 11.797h-1.953v-.977a.977.977 0 00-.977-.976h-10.52a2.944 2.944 0 00-1.785-1.785v-2.29a2.934 2.934 0 001.954-2.761 2.933 2.933 0 00-2.93-2.93h-4.394a.977.977 0 100 1.953h4.394a.978.978 0 010 1.953H18.164a.977.977 0 010-1.953h.489a.977.977 0 100-1.953h-.489a2.933 2.933 0 00-2.93 2.93c0 1.273.817 2.358 1.954 2.762v2.12h-2.93a2.935 2.935 0 00-2.762 1.954H.976A.976.976 0 000 10.82v14.65c0 .54.437.976.977.976h2.93v17.578c0 .54.436.977.976.977h38.281c.54 0 .977-.437.977-.977V34.09a2.934 2.934 0 001.953-2.762 2.933 2.933 0 00-2.93-2.93h-4.492v-1.953h6.445c.54 0 .977-.437.977-.976v-3.906h1.953A1.955 1.955 0 0050 19.61v-5.86a1.955 1.955 0 00-1.953-1.953zM27.93 7.891V5.937h2.93v1.954h-2.93zm-8.79-1.954h6.837v1.954H19.14V5.937zm-4.882 3.907h17.578a.978.978 0 010 1.953H14.258a.978.978 0 010-1.953zm.976 18.555V13.75h1.954v2.93c0 .54.437.977.976.977h.66v2.93c0 .539.437.976.976.976h.977v.976a.977.977 0 101.953 0v-.976h8.13v6.835H15.233zM5.86 24.492h7.422v2.93H5.86v-2.93zm0 4.883h7.422v9.766H5.86v-9.766zM25 13.75v1.954h-5.86V13.75H25zm5.86 0v5.86h-6.177v-1.953h1.294a.977.977 0 00.976-.977v-2.93h3.906zm-10.083 5.86v-1.953h1.953v1.953h-1.953zM1.953 24.492V11.797h9.543c.295.831.954 1.49 1.785 1.785v8.957H4.883a.976.976 0 00-.977.977v.976H1.953zM5.86 43.047v-1.953h8.399c.54 0 .976-.437.976-.977v-5.859h26.953v8.789H5.86zm38.282-11.718a.978.978 0 01-.977.976h-27.93v-1.953h27.93c.538 0 .977.438.977.976zm-7.422-2.93h-3.907v-1.954h3.907V28.4zm7.422-3.907H32.813v-10.91a2.944 2.944 0 001.785-1.785h9.543v12.695zm3.906-4.882h-1.953v-5.86h1.953v5.86z" fill="#fff"/><path d="M41.21 19.61h-3.515a.976.976 0 100 1.953h3.516a.977.977 0 000-1.953zm0-3.907h-3.515a.976.976 0 100 1.954h3.516a.977.977 0 000-1.954zm-36.327.001h3.515a.977.977 0 000-1.954H4.883a.977.977 0 100 1.954zm0 3.906a.976.976 0 10.002-1.953.976.976 0 00-.002 1.953zm34.374 19.53h-5.37a.976.976 0 100 1.954h5.37a.977.977 0 000-1.953zm-9.764 0h-.001a.976.976 0 10-.001 1.954.976.976 0 00.002-1.953zM23.047 2.031A.976.976 0 1023.05.08a.976.976 0 00-.002 1.952z" fill="#fff"/></svg>