<svg width="47" height="47" fill="none" xmlns="http://www.w3.org/2000/svg"><path d="M19.394 10.596a.917.917 0 00-1.191-.517 14.408 14.408 0 00-6.571 5.216 14.343 14.343 0 00-2.562 8.208.918.918 0 001.836 0c0-5.206 3.129-9.805 7.97-11.716a.918.918 0 00.518-1.191zm10.151 11.998a.918.918 0 00-.918.918 5.146 5.146 0 01-5.14 5.14 5.146 5.146 0 01-5.14-5.14 5.146 5.146 0 015.14-5.14.918.918 0 000-1.836 6.984 6.984 0 00-6.976 6.976 6.984 6.984 0 006.976 6.976 6.984 6.984 0 006.976-6.976.918.918 0 00-.918-.918zm3.402-.034a.918.918 0 00-.918.917v.035a.918.918 0 001.836 0v-.035a.918.918 0 00-.918-.918zm-3.714 8.37a.92.92 0 00-1.298 0 .923.923 0 00-.269.65c0 .241.098.478.269.649a.923.923 0 001.298 0 .93.93 0 00.269-.65.923.923 0 00-.27-.648zm14.643 2.353a3.1 3.1 0 00-1.46.364L39.7 30.93a.918.918 0 00-.65-.269h-6.693a.918.918 0 000 1.836h6.313l2.448 2.448a3.1 3.1 0 00-.363 1.458c0 1.721 1.4 3.121 3.121 3.121s3.121-1.4 3.121-3.12c0-1.721-1.4-3.121-3.12-3.121zm0 4.406a1.286 1.286 0 01-1.285-1.285c0-.71.577-1.286 1.285-1.286a1.287 1.287 0 010 2.57z" fill="#fff"/><path d="M43.876 7.478c-1.72 0-3.12 1.4-3.12 3.121 0 .527.131 1.023.363 1.459l-2.448 2.448H28.626a10.375 10.375 0 00-4.211-1.33v-1.659h9.68a.918.918 0 00.803-.474l2.79-5.055A3.124 3.124 0 0042.04 3.12c0-1.72-1.4-3.12-3.12-3.12s-3.121 1.4-3.121 3.12c0 .603.172 1.165.468 1.642l-2.715 4.92h-9.137V.921a.918.918 0 00-.918-.918h-4.116a.918.918 0 00-.918.918v2.84a20.166 20.166 0 00-5.385 2.232l-2-2a.919.919 0 00-1.299 0L3.977 9.8a.918.918 0 000 1.297l1.999 2a20.17 20.17 0 00-2.232 5.384H.918A.918.918 0 000 19.4v8.208c0 .507.411.918.918.918h2.826a20.163 20.163 0 002.232 5.385L3.977 35.91a.918.918 0 000 1.297l5.802 5.807a.918.918 0 001.298 0l2.001-2a20.172 20.172 0 005.385 2.23v2.837c0 .507.41.918.918.918h4.116a.916.916 0 00.918-.916V37.28h9.136l2.717 4.956a3.1 3.1 0 00-.469 1.643c0 1.721 1.4 3.121 3.12 3.121 1.722 0 3.122-1.4 3.122-3.12a3.124 3.124 0 00-4.351-2.869l-2.79-5.09a.918.918 0 00-.806-.477h-9.68v-2.471a.918.918 0 00-.917-.918c-4.716 0-8.552-3.837-8.552-8.552 0-4.658 3.744-8.458 8.381-8.55.052.01.106.016.161.016a8.581 8.581 0 018.01 5.564.918.918 0 101.72-.64 10.313 10.313 0 00-2.235-3.551h8.069a.918.918 0 00.649-.27l2.716-2.716a3.1 3.1 0 001.46.364c1.721 0 3.121-1.4 3.121-3.12 0-1.722-1.4-3.122-3.12-3.122zM38.92 1.836a1.286 1.286 0 010 2.57 1.286 1.286 0 01-1.285-1.285c0-.709.576-1.285 1.285-1.285zm0 40.758c.709 0 1.285.577 1.285 1.285 0 .709-.577 1.285-1.285 1.285a1.286 1.286 0 01-1.285-1.285c0-.708.576-1.285 1.285-1.285zM22.58 13.156c-5.3.466-9.47 4.929-9.47 10.347 0 5.418 4.17 9.881 9.469 10.347v11.314l-2.28-.001v-2.647a.918.918 0 00-.725-.897 18.365 18.365 0 01-6.132-2.541.918.918 0 00-1.148.122l-1.866 1.866-4.504-4.508 1.865-1.864a.918.918 0 00.122-1.148 18.363 18.363 0 01-2.541-6.131.918.918 0 00-.898-.726H1.836v-6.372h2.636a.918.918 0 00.898-.725 18.366 18.366 0 012.54-6.132.918.918 0 00-.121-1.147l-1.865-1.865 4.504-4.507 1.866 1.866a.918.918 0 001.148.122 18.367 18.367 0 016.132-2.541.918.918 0 00.725-.898V1.84h2.28v11.316zm21.296-1.272a1.286 1.286 0 01-1.285-1.285c0-.708.577-1.285 1.285-1.285a1.286 1.286 0 010 2.57z" fill="#fff"/><path d="M43.876 20.394c-1.402 0-2.59.929-2.983 2.203h-2.709a.918.918 0 000 1.836h2.709a3.126 3.126 0 002.983 2.203c1.72 0 3.12-1.4 3.12-3.121s-1.4-3.121-3.12-3.121zm0 4.406a1.286 1.286 0 01-1.285-1.285 1.286 1.286 0 012.57 0c0 .708-.577 1.285-1.285 1.285z" fill="#fff"/></svg>