<svg width="36" height="41" fill="none" xmlns="http://www.w3.org/2000/svg"><path d="M18 28.752c5.982 0 10.832-4.85 10.832-10.832 0-5.982-4.85-10.832-10.832-10.832-5.982 0-10.832 4.85-10.832 10.832 0 5.983 4.85 10.832 10.832 10.832z" fill="#FF8619"/><path d="M30.728 5.272C27.328 1.872 22.808 0 18 0A17.882 17.882 0 005.272 5.272C1.872 8.672 0 13.192 0 18c0 8.482 5.93 15.805 14.168 17.59L18 40.7l3.832-5.11C30.07 33.805 36 26.482 36 18c0-4.808-1.872-9.328-5.272-12.728zM18 4.699c7.29 0 13.221 5.931 13.221 13.221S25.291 31.142 18 31.142c-7.29 0-13.221-5.931-13.221-13.222C4.779 10.63 10.709 4.7 18 4.7z" fill="#FF8619"/></svg>