<svg width="13" height="10" fill="none" xmlns="http://www.w3.org/2000/svg"><path d="M11.727 0H1.13C.956 0 .793.044.646.116l5.757 5.879 1.29-1.267h.001L12.211.116A1.098 1.098 0 0011.727 0zm1.017.66L8.494 5l4.25 4.34c.07-.15.113-.316.113-.494V1.154a1.16 1.16 0 00-.113-.494zM.113.66A1.16 1.16 0 000 1.153v7.692c0 .178.043.344.113.494L4.364 5 .114.66z" fill="#292929"/><path d="M7.96 5.544L6.67 6.81a.372.372 0 01-.533 0l-1.24-1.266-4.251 4.34c.147.072.31.116.484.116h10.597c.174 0 .337-.044.484-.116l-4.25-4.34z" fill="#292929"/></svg>