<svg width="44" height="50" viewBox="0 0 44 50" fill="none" xmlns="http://www.w3.org/2000/svg">
<path d="M29.7844 15.6508C29.6699 15.2985 29.3652 15.0419 28.9987 14.9887L24.7652 14.3746L22.871 10.5391C22.7069 10.207 22.3687 9.99683 21.9984 9.99683H21.9982C21.6278 9.99692 21.2896 10.2073 21.1257 10.5396L19.2336 14.3761L15.0004 14.9924C14.6338 15.0457 14.3294 15.3026 14.2151 15.6549C14.1008 16.0072 14.1963 16.3939 14.4616 16.6524L17.5257 19.6375L16.8037 23.8539C16.7411 24.219 16.8914 24.5879 17.1911 24.8056C17.3606 24.9287 17.5613 24.9913 17.7629 24.9913C17.9178 24.9913 18.0734 24.9543 18.2159 24.8794L22.0017 22.8877L25.7886 24.8773C26.1165 25.0497 26.5138 25.0209 26.8135 24.803C27.1131 24.5852 27.2631 24.2162 27.2004 23.8511L26.4762 19.6352L29.5387 16.6485C29.8037 16.3898 29.8989 16.0031 29.7844 15.6508ZM24.7509 18.5991C24.5216 18.8227 24.417 19.1448 24.4712 19.4605L24.9482 22.2374L22.454 20.9269C22.1705 20.7779 21.8317 20.778 21.5483 20.9271L19.0547 22.2389L19.5302 19.4618C19.5843 19.1461 19.4795 18.824 19.2502 18.6004L17.2321 16.6343L20.0202 16.2284C20.3372 16.1823 20.6111 15.983 20.7528 15.6959L21.999 13.169L23.2467 15.6953C23.3886 15.9825 23.6626 16.1815 23.9796 16.2274L26.7679 16.6318L24.7509 18.5991Z" fill="white"/>
<path d="M43.8705 42.7569L35.8269 28.766C38.2559 25.7338 39.7113 21.8896 39.7113 17.7113C39.7113 7.94527 31.766 0 22 0C12.234 0 4.2887 7.94527 4.2887 17.7113C4.2887 21.8896 5.74395 25.7338 8.17312 28.766L0.129469 42.7569C-0.0552346 43.0782 -0.0414158 43.4766 0.165183 43.7845C0.371783 44.0922 0.735643 44.2558 1.10262 44.2065L7.38068 43.3635L9.78961 49.2219C9.93072 49.5649 10.2546 49.798 10.6248 49.8227C10.6466 49.8242 10.6683 49.8249 10.6899 49.8249C11.0358 49.8249 11.3578 49.6407 11.5324 49.3383L19.6527 35.2737C19.6539 35.2715 19.6548 35.2693 19.6561 35.2671C20.4233 35.369 21.2055 35.4225 22.0002 35.4225C22.7949 35.4225 23.5771 35.369 24.3443 35.2671C24.3456 35.2692 24.3464 35.2715 24.3477 35.2737L32.4679 49.3383C32.6425 49.6407 32.9646 49.8249 33.3105 49.8249C33.3321 49.8249 33.3538 49.8242 33.3756 49.8227C33.7458 49.798 34.0697 49.5649 34.2108 49.2219L36.6198 43.3635L42.8979 44.2065C43.2656 44.2558 43.6287 44.0922 43.8353 43.7845C44.0413 43.4766 44.0552 43.0782 43.8705 42.7569ZM10.8366 46.6507L9.08301 42.3861L10.6567 39.8181C10.9375 39.3598 10.7937 38.7607 10.3355 38.4799C9.8772 38.1992 9.27803 38.3429 8.99728 38.8012L7.40706 41.3962L2.80115 42.0146L9.54273 30.2885C11.751 32.4759 14.5299 34.0877 17.6339 34.8775L10.8366 46.6507ZM21.9999 33.4763C13.3071 33.4763 6.2349 26.4041 6.2349 17.7113C6.2349 9.01845 13.3071 1.9463 21.9999 1.9463C30.6927 1.9463 37.7649 9.01845 37.7649 17.7113C37.7649 26.4041 30.6927 33.4763 21.9999 33.4763ZM36.5928 41.3962L35.0026 38.8012C34.7219 38.3429 34.1227 38.199 33.6644 38.4799C33.2062 38.7608 33.0623 39.3598 33.3432 39.8181L34.9169 42.3861L33.1633 46.6507L26.366 34.8775C29.47 34.0877 32.249 32.4759 34.4572 30.2885L41.1987 42.0146L36.5928 41.3962Z" fill="white"/>
<path d="M21.9999 5.0603C19.8282 5.0603 17.6857 5.62006 15.8037 6.67923C15.3353 6.94276 15.1693 7.53619 15.4328 8.00456C15.6963 8.47294 16.2898 8.63915 16.7581 8.37543C18.3493 7.47994 20.1619 7.0066 21.9999 7.0066C27.9024 7.0066 32.7045 11.8087 32.7045 17.7112C32.7045 19.3241 32.3551 20.8739 31.6659 22.3173C31.4344 22.8023 31.6398 23.3832 32.1248 23.6148C32.2602 23.6794 32.4029 23.71 32.5435 23.71C32.9067 23.71 33.2553 23.5055 33.4223 23.1559C34.2374 21.4485 34.6508 19.6166 34.6508 17.7112C34.6508 10.7355 28.9757 5.0603 21.9999 5.0603Z" fill="white"/>
<path d="M31.0553 25.1483C30.6696 24.774 30.0535 24.7833 29.6793 25.1689L29.6577 25.1911C29.2822 25.5756 29.2895 26.1918 29.674 26.5673C29.8633 26.7521 30.1086 26.8441 30.3538 26.8441C30.6067 26.8441 30.8595 26.7461 31.0501 26.5508L31.0758 26.5244C31.4502 26.1388 31.441 25.5227 31.0553 25.1483Z" fill="white"/>
<path d="M28.48 27.4765C28.2206 27.0058 27.6288 26.8344 27.1581 27.0939C25.5883 27.9589 23.8046 28.4161 21.9999 28.4161C16.0974 28.4161 11.2953 23.614 11.2953 17.7114C11.2953 16.1652 11.6175 14.674 12.2528 13.2791C12.4757 12.79 12.2598 12.213 11.7707 11.9901C11.2815 11.7674 10.7045 11.9832 10.4816 12.4723C9.72996 14.1222 9.34888 15.8848 9.34888 17.7114C9.34888 24.6872 15.0241 30.3624 21.9998 30.3624C24.1321 30.3624 26.2406 29.8216 28.0973 28.7984C28.5681 28.539 28.7394 27.9472 28.48 27.4765Z" fill="white"/>
<path d="M14.1176 9.04061C13.7244 8.67422 13.1086 8.69621 12.7423 9.08936L12.7207 9.11262C12.3557 9.50714 12.3796 10.1228 12.7741 10.4878C12.9612 10.661 13.1982 10.7466 13.4347 10.7466C13.6964 10.7466 13.9574 10.6416 14.1493 10.4344L14.1664 10.416C14.5327 10.0227 14.5109 9.4069 14.1176 9.04061Z" fill="white"/>
</svg>
