<svg width="47" height="48" viewBox="0 0 47 48" fill="none" xmlns="http://www.w3.org/2000/svg">
<path d="M37.2799 37.6382C36.8783 37.3312 36.3043 37.4082 35.9975 37.8096C35.6906 38.211 35.7674 38.7852 36.1688 39.092L37.7322 40.2869C37.8975 40.4132 38.093 40.4749 38.2874 40.4749C38.5376 40.4749 38.786 40.3726 38.9658 40.1742L41.9541 36.8747C42.2932 36.5001 42.2647 35.9216 41.8901 35.5824C41.5157 35.2433 40.937 35.2719 40.5979 35.6464L38.1746 38.3222L37.2799 37.6382Z" fill="white"/>
<path d="M46.9935 32.7547C46.9831 32.2882 46.6233 31.9045 46.1586 31.8639C43.9823 31.6737 41.3041 30.2118 39.3355 28.1397C39.1627 27.958 38.9231 27.8551 38.6725 27.855C38.6724 27.855 38.6723 27.855 38.6722 27.855C38.4217 27.855 38.1821 27.9578 38.0094 28.1393C37.1257 29.0681 36.1 29.8738 35.0415 30.4979C33.1842 28.4244 30.8982 26.8968 28.2188 25.9352C28.1955 25.9258 28.1719 25.9174 28.1477 25.9099C27.9391 25.836 27.7279 25.7654 27.5145 25.6983C29.7804 23.4384 31.3045 20.4686 31.3045 17.8045V16.3671C32.3756 15.9008 33.1268 14.8317 33.1268 13.5899C33.1268 12.3001 32.315 11.1969 31.1757 10.7628C30.7055 6.19757 27.4891 2.35995 23.0711 1.09032C22.9405 0.468495 22.388 0 21.7281 0H18.4129C17.7764 0 17.2413 0.436201 17.0868 1.02509C14.9136 1.60465 12.9286 2.84171 11.4403 4.56163C9.92967 6.30735 8.9903 8.48744 8.75171 10.7632C7.6119 11.1976 6.79978 12.3005 6.79978 13.59C6.79978 14.8322 7.55207 15.9016 8.62464 16.3677V17.8046C8.62464 20.4662 10.1491 23.4371 12.4149 25.6985C12.2077 25.7637 12.0025 25.8318 11.7996 25.9034C11.7597 25.9147 11.721 25.9287 11.6832 25.9453C8.68429 27.0271 6.18061 28.8178 4.2199 31.2908C2.33421 33.6692 0.99368 36.6063 0.235634 40.0213C-0.0341552 41.2417 -0.237069 42.7753 0.595079 43.8115C1.40792 44.8236 2.86236 44.9533 4.03876 44.9533H10.0233C10.5285 44.9533 10.9381 44.5437 10.9381 44.0385C10.9381 43.5333 10.5285 43.1236 10.0233 43.1236H4.03876C2.94433 43.1236 2.26569 42.9696 2.0217 42.6657C1.76325 42.3439 1.76344 41.587 2.02197 40.4169C2.97278 36.1343 5.2976 30.8936 10.899 28.2476C10.7267 31.3382 12.4013 33.3584 13.4658 34.6406C13.6287 34.8369 13.8662 34.9562 14.121 34.9698C14.3756 34.9839 14.6246 34.8901 14.8075 34.7122L19.9634 29.6981L25.1218 34.7124C25.293 34.8787 25.5219 34.9712 25.7594 34.9712C25.7758 34.9712 25.7922 34.9707 25.8087 34.9698C26.0635 34.9561 26.3011 34.8365 26.464 34.6399C27.5269 33.3567 29.1991 31.3353 29.0284 28.2512C30.6534 29.022 32.0892 30.053 33.3239 31.3372C32.5866 31.6226 31.8617 31.8049 31.1857 31.864C30.7213 31.9045 30.3617 32.2879 30.3508 32.7541C30.2742 36.0249 30.8194 38.3683 32.2943 41.1111C32.3068 41.1344 32.8052 42.0278 33.5818 43.1238H18.3057C17.8004 43.1238 17.3908 43.5335 17.3908 44.0387C17.3908 44.5438 17.8004 44.9535 18.3057 44.9535H35.0347C36.1377 46.1725 37.4385 47.2099 38.6721 47.2099C41.6483 47.2099 45.0172 41.1722 45.0495 41.1118C46.5221 38.3685 47.0671 36.0255 46.9935 32.7547ZM29.3083 10.5653H24.2713C23.3197 8.07933 23.1397 6.02942 23.1074 3.0202C26.4072 4.18727 28.806 7.09888 29.3083 10.5653ZM18.8699 1.8297H21.271C21.2768 5.37091 21.3665 7.76928 22.3252 10.5653H17.8175C18.7745 7.76919 18.8642 5.37054 18.8699 1.8297ZM17.0344 2.94802C17.0042 5.99685 16.8293 8.05938 15.8718 10.5653H10.6204C11.1422 7.05387 13.6665 4.06331 17.0344 2.94802ZM9.82712 12.395H15.9473C16.0012 12.4387 16.0533 12.4443 16.0971 12.395H30.1021C30.761 12.395 31.2971 12.931 31.2971 13.59C31.2971 14.2505 30.7611 14.7877 30.1021 14.7877H9.82712C9.16678 14.7877 8.62949 14.2505 8.62949 13.59C8.62949 12.9311 9.16669 12.395 9.82712 12.395ZM10.4543 17.8046V16.6174H29.4747V17.8046C29.4747 21.2925 26.0956 25.6063 22.2434 27.0363C20.5578 27.6627 19.3611 27.6622 17.6715 27.0343C13.8268 25.5985 10.4543 21.2854 10.4543 17.8046ZM14.2512 32.7009C13.3043 31.4648 12.3925 29.8418 12.8308 27.486C13.2343 27.3557 13.6513 27.2369 14.0836 27.1317C15.0062 27.8086 16.0012 28.3637 17.0327 28.7489C17.3647 28.8723 17.6841 28.9739 17.9966 29.0584L14.2512 32.7009ZM25.6771 32.7004L21.9293 29.0573C22.2378 28.9736 22.5531 28.8733 22.8804 28.7516C23.917 28.3668 24.9169 27.8106 25.8437 27.1316C26.2707 27.2355 26.6884 27.3532 27.0959 27.4852C27.5351 29.8377 26.6237 31.4623 25.6771 32.7004ZM43.4371 40.2469C42.3552 42.266 39.8215 45.38 38.6721 45.38C37.5227 45.38 34.989 42.266 33.9065 40.2456C32.6975 37.9976 32.2014 36.123 32.1745 33.5706C33.1614 33.3827 34.1889 33.0144 35.1992 32.5001C35.2347 32.4846 35.2693 32.4664 35.3033 32.4461C36.483 31.8329 37.6369 31.0213 38.6717 30.0568C40.6202 31.8746 42.9923 33.1566 45.169 33.5707C45.1402 36.1235 44.6442 37.9984 43.4371 40.2469Z" fill="white"/>
<path d="M14.1645 43.1235C13.6592 43.1235 13.2496 43.5332 13.2496 44.0384C13.2496 44.5436 13.6592 44.9532 14.1645 44.9532H14.1697C14.675 44.9532 15.0819 44.5436 15.0819 44.0384C15.0819 43.5332 14.6698 43.1235 14.1645 43.1235Z" fill="white"/>
</svg>
