<svg width="50" height="48" viewBox="0 0 50 48" fill="none" xmlns="http://www.w3.org/2000/svg">
<path d="M48.5402 36.5523C48.0284 36.3959 47.4857 36.6841 47.3291 37.1965C45.8356 42.0838 40.6586 46.0599 35.7885 46.0599C32.5939 46.0599 29.8868 44.0204 29.6797 40.7056C29.6877 37.5728 31.0549 34.7937 33.2803 32.605C35.4699 30.4513 38.4855 28.8727 41.6065 28.8727C43.2844 28.8727 44.741 29.3549 45.819 30.2672C46.2281 30.6133 46.84 30.5624 47.1862 30.1534C47.5322 29.7445 47.4813 29.1325 47.0723 28.7864C45.6395 27.5737 43.7493 26.9327 41.6065 26.9327C40.7973 26.9327 39.9756 27.0246 39.1546 27.202V7.5202C39.1546 5.5413 37.5446 3.93131 35.5657 3.93131H29.1169V3.05943C29.1169 1.37242 27.7444 0 26.0574 0H26.0436C24.3566 0 22.9842 1.37242 22.9842 3.05943V3.93131H15.4338V3.05943C15.4338 1.37242 14.0615 0 12.3745 0H12.3606C10.6736 0 9.3013 1.37242 9.3013 3.05943V3.93131H3.58889C1.60999 3.93131 0 5.5413 0 7.5202V38.0852C0 40.0641 1.60999 41.6742 3.58889 41.6742H27.8356C28.0333 42.8814 28.4918 43.9921 29.2054 44.9552C30.6605 46.9187 32.9984 48 35.7884 48C38.5525 48 41.4642 46.9358 43.9869 45.0033C46.5002 43.0781 48.3461 40.5069 49.1844 37.7635C49.3411 37.2511 49.0526 36.7088 48.5402 36.5523ZM24.9242 3.05943C24.9242 2.44229 25.4264 1.9401 26.0436 1.9401H26.0573C26.6745 1.9401 27.1767 2.44219 27.1767 3.05943L27.176 6.8691C27.176 7.46869 26.6531 7.99475 26.0571 7.99475C25.4558 7.99475 24.9242 7.48295 24.9242 6.8757V3.05943ZM11.2413 3.05943C11.2413 2.44229 11.7434 1.9401 12.3605 1.9401H12.3744C12.9916 1.9401 13.4937 2.44219 13.4937 3.05943L13.4936 6.87589C13.4936 7.47189 12.9707 7.99475 12.3712 7.99475C11.7708 7.99174 11.2414 7.48198 11.2414 6.8757V3.05943H11.2413ZM1.9401 7.5202C1.9401 6.61107 2.67976 5.87141 3.58889 5.87141H9.30121V6.87579C9.32284 7.69151 9.6221 8.45358 10.2043 9.03405C10.7797 9.60774 11.5635 9.93523 12.3762 9.93523C14.0623 9.93426 15.4338 8.56222 15.4338 6.87579V5.87141H22.9837V6.87589C22.9837 8.54224 24.3963 9.93513 26.0574 9.93513C27.7444 9.93513 29.1169 8.56271 29.1169 6.8757V5.87141H35.5657C36.4749 5.87141 37.2145 6.61107 37.2145 7.5202V13.9698H1.9401V7.5202ZM1.9401 38.0852V15.9099H37.2144V27.7825C32.3466 29.6479 28.0461 34.3696 27.7398 39.7341H3.58889C2.67976 39.7341 1.9401 38.9945 1.9401 38.0852Z" fill="white"/>
<path d="M39.0413 32.1763L37.6251 36.8318L35.107 38.3753C34.6503 38.6553 34.5069 39.2525 34.787 39.7093C35.0632 40.1598 35.6699 40.3058 36.1209 40.0294L38.953 38.2935C39.1553 38.1695 39.3051 37.9757 39.3741 37.7487L40.8974 32.7409C41.0533 32.2283 40.7642 31.6865 40.2516 31.5305C39.7396 31.3747 39.1973 31.6638 39.0413 32.1763Z" fill="white"/>
<path d="M25.0142 35.6074H12.3885C11.8528 35.6074 11.4185 36.0417 11.4185 36.5775C11.4185 37.1132 11.8528 37.5475 12.3885 37.5475H25.0142C25.5498 37.5475 25.9842 37.1132 25.9842 36.5775C25.9842 36.0417 25.5499 35.6074 25.0142 35.6074Z" fill="white"/>
<path d="M9.04952 36.2063C8.89014 35.8238 8.49572 35.5805 8.08219 35.6104C7.67739 35.6397 7.32817 35.9289 7.21943 36.319C6.98798 37.1494 7.91757 37.8455 8.6519 37.4091C9.06136 37.1659 9.22927 36.6448 9.04952 36.2063Z" fill="white"/>
<path d="M24.8043 43.6477H16.337C15.8013 43.6477 15.3669 44.082 15.3669 44.6178C15.3669 45.1535 15.8013 45.5878 16.337 45.5878H24.8043C25.34 45.5878 25.7744 45.1535 25.7744 44.6178C25.7744 44.082 25.3401 43.6477 24.8043 43.6477Z" fill="white"/>
<path d="M27.1636 23.7918C27.0495 23.4406 26.7459 23.1847 26.3805 23.1316L22.4455 22.5597L20.6858 18.9939C20.3369 18.2872 19.2948 18.2872 18.9459 18.9939L17.186 22.5597L13.251 23.1316C12.4719 23.2448 12.1482 24.2353 12.7133 24.7862L15.5608 27.5618L14.8886 31.481C14.7556 32.2565 15.597 32.8712 16.2961 32.5036L19.8158 30.6532L23.3354 32.5036C24.0338 32.8709 24.8761 32.2568 24.743 31.481L24.0707 27.5618L26.9182 24.7862C27.1827 24.5285 27.2777 24.143 27.1636 23.7918ZM22.3513 26.5285C22.1228 26.7513 22.0184 27.0724 22.0724 27.3871L22.4986 29.8717L20.2673 28.6986C19.9846 28.5501 19.6469 28.5501 19.3645 28.6986L17.1331 29.8717L17.5593 27.3871C17.6132 27.0724 17.5089 26.7513 17.2803 26.5285L15.4752 24.7688L17.9698 24.4063C18.2859 24.3604 18.5589 24.162 18.7003 23.8757L19.8159 21.6151L20.9315 23.8756C21.0728 24.162 21.3459 24.3604 21.6619 24.4063L24.1566 24.7688L22.3513 26.5285Z" fill="white"/>
<path d="M49.4219 32.6276C49.317 32.1106 48.8002 31.7618 48.2811 31.8661C47.7639 31.97 47.4143 32.4882 47.5196 33.0069C47.6246 33.5245 48.141 33.872 48.6604 33.7684C49.1766 33.6653 49.5268 33.1447 49.4219 32.6276Z" fill="white"/>
</svg>
