<svg width="43" height="44" viewBox="0 0 43 44" fill="none" xmlns="http://www.w3.org/2000/svg">
<path d="M17.2575 8.06848C17.2188 8.02976 17.175 7.99441 17.1296 7.9641C17.0833 7.9338 17.0344 7.9077 16.9839 7.88666C16.9334 7.86562 16.8804 7.84878 16.8265 7.83868C16.7179 7.81679 16.606 7.81679 16.4974 7.83868C16.4435 7.84878 16.3905 7.86562 16.34 7.88666C16.2895 7.9077 16.2407 7.9338 16.1944 7.9641C16.1489 7.99441 16.106 8.02976 16.0664 8.06848C15.9098 8.22505 15.8206 8.44223 15.8206 8.66361C15.8206 8.71833 15.8257 8.77388 15.8366 8.82776C15.8476 8.88163 15.8635 8.93466 15.8846 8.98517C15.9056 9.03651 15.9317 9.08534 15.962 9.13079C15.9932 9.17709 16.0277 9.22002 16.0664 9.25874C16.106 9.29746 16.1489 9.33282 16.1944 9.36312C16.2407 9.39427 16.2895 9.41952 16.34 9.44056C16.3905 9.46161 16.4435 9.47844 16.4974 9.48939C16.5521 9.50033 16.6068 9.50538 16.6624 9.50538C16.7171 9.50538 16.7718 9.50033 16.8265 9.48939C16.8804 9.47844 16.9334 9.46161 16.9839 9.44056C17.0344 9.41952 17.0833 9.39427 17.1296 9.36312C17.175 9.33282 17.2188 9.29746 17.2575 9.25874C17.2962 9.22002 17.3316 9.17709 17.3619 9.13079C17.3922 9.08534 17.4183 9.03651 17.4393 8.98517C17.4604 8.93466 17.4764 8.88163 17.4873 8.82776C17.4983 8.77388 17.5033 8.71833 17.5033 8.66361C17.5033 8.44223 17.4141 8.22505 17.2575 8.06848Z" fill="white"/>
<path d="M8.60834 8.49947C8.59739 8.44559 8.5814 8.39256 8.56036 8.34206C8.53931 8.29071 8.51322 8.24189 8.48291 8.19643C8.45177 8.15013 8.41641 8.1072 8.37769 8.06848C8.33897 8.02976 8.29604 7.99441 8.24974 7.9641C8.20429 7.9338 8.15547 7.9077 8.10496 7.88666C8.05361 7.86562 8.00058 7.84878 7.94755 7.83868C7.83896 7.81679 7.72701 7.81679 7.61842 7.83868C7.56455 7.84878 7.51151 7.86562 7.46101 7.88666C7.40966 7.9077 7.36084 7.9338 7.31538 7.9641C7.26908 7.99441 7.22616 8.02976 7.18743 8.06848C7.14871 8.1072 7.11336 8.15013 7.08305 8.19643C7.05275 8.24189 7.02666 8.29071 7.00561 8.34206C6.98457 8.39256 6.96857 8.44559 6.95763 8.49947C6.94669 8.55334 6.9408 8.6089 6.9408 8.66361C6.9408 8.71833 6.94669 8.77388 6.95763 8.82776C6.96857 8.88163 6.98457 8.93466 7.00561 8.98601C7.02666 9.03651 7.05275 9.08534 7.08305 9.13079C7.11336 9.17709 7.14871 9.22002 7.18743 9.25874C7.22616 9.29746 7.26908 9.33282 7.31538 9.36312C7.36084 9.39342 7.40966 9.41952 7.46101 9.44056C7.51151 9.46161 7.56455 9.47844 7.61842 9.48854C7.67229 9.49949 7.72785 9.50538 7.78256 9.50538C7.83728 9.50538 7.89283 9.49949 7.94755 9.48854C8.00058 9.47844 8.05361 9.46161 8.10496 9.44056C8.15547 9.41952 8.20429 9.39342 8.24974 9.36312C8.29604 9.33282 8.33897 9.29746 8.37769 9.25874C8.41641 9.22002 8.45177 9.17709 8.48291 9.13079C8.51322 9.08534 8.53931 9.03651 8.56036 8.98601C8.5814 8.93466 8.59739 8.88163 8.60834 8.82776C8.61928 8.77388 8.62433 8.71833 8.62433 8.66361C8.62433 8.6089 8.61928 8.55334 8.60834 8.49947Z" fill="white"/>
<path d="M42.5767 30.6243L35.8453 26.7688V19.4634C35.8453 19.1569 35.6787 18.8747 35.4105 18.7265L24.5623 12.7356C24.3015 12.5916 23.9842 12.596 23.7277 12.7476C23.4711 12.8989 23.3137 13.1747 23.3137 13.4725V27.11L21.9056 27.7743L20.5416 5.47923H21.0986C21.5635 5.47923 21.9402 5.10237 21.9402 4.63746V0.841767C21.9402 0.376859 21.5634 0 21.0986 0H12.2253C12.2243 0 12.2234 0 12.2224 8.41767e-05C12.2214 0 12.2204 0 12.2193 0H3.34611C2.8812 0 2.50434 0.376859 2.50434 0.841767V4.63746C2.50434 5.10237 2.8812 5.47923 3.34611 5.47923H3.99671L2.48658 30.1633L0.45649 31.2084C0.176098 31.3526 0 31.6415 0 31.9568V42.2567C0 42.7216 0.376859 43.0985 0.841767 43.0985H42.1582C42.6231 43.0985 43 42.7216 43 42.2567V31.3547C43 31.053 42.8385 30.7743 42.5767 30.6243ZM16.6881 10.9079C16.2232 10.9079 15.8464 11.2847 15.8464 11.7496V27.11L13.1618 28.3764L14.5626 5.47923H18.8549L20.2663 28.5476L17.5297 29.8386V27.6593C17.5298 27.6539 17.5299 27.6486 17.5299 27.6432V11.7496C17.5299 11.2847 17.153 10.9079 16.6881 10.9079ZM13.0671 1.68353H20.2568V3.7957H13.0671V1.68353ZM12.2193 5.47923C12.2204 5.47923 12.2214 5.47923 12.2223 5.47923C12.2233 5.47923 12.2243 5.47923 12.2252 5.47923H12.8758L12.2691 15.3971L11.6623 5.47923H12.2193ZM9.65877 26.925C9.65473 26.9226 9.65078 26.9201 9.64674 26.9178C9.64497 26.9167 9.6432 26.9158 9.64143 26.9147C9.63908 26.9133 9.63672 26.9119 9.63428 26.9105C9.63243 26.9095 9.63058 26.9085 9.62872 26.9074C9.62645 26.9062 9.62426 26.9049 9.62199 26.9037C9.61997 26.9026 9.61786 26.9015 9.61584 26.9004C9.61374 26.8993 9.61164 26.8982 9.60953 26.8971C9.60743 26.896 9.60532 26.8949 9.60322 26.8938C9.60111 26.8928 9.59909 26.8917 9.59699 26.8907C9.5948 26.8896 9.59253 26.8885 9.59034 26.8874C9.5884 26.8865 9.58647 26.8855 9.58453 26.8846C9.58209 26.8834 9.57965 26.8823 9.57721 26.8812C9.57552 26.8804 9.57376 26.8796 9.57199 26.8788C9.56955 26.8777 9.56711 26.8765 9.56466 26.8754C9.56281 26.8746 9.56096 26.8738 9.55902 26.8729C9.55658 26.8718 9.55406 26.8707 9.55162 26.8697C9.54985 26.869 9.54808 26.8682 9.54631 26.8674C9.54387 26.8664 9.54152 26.8654 9.53907 26.8644C9.53706 26.8636 9.53503 26.8627 9.53293 26.862C9.53057 26.861 9.5283 26.8601 9.52594 26.8592C9.52418 26.8585 9.52241 26.8578 9.52073 26.8572C9.51803 26.8562 9.51534 26.8552 9.51264 26.8541C9.5113 26.8536 9.51003 26.8532 9.50869 26.8527C9.50566 26.8516 9.50271 26.8505 9.49968 26.8495C9.49859 26.8491 9.49741 26.8488 9.49631 26.8483C9.48125 26.8431 9.46609 26.8383 9.45077 26.8339C9.44976 26.8337 9.44875 26.8334 9.44774 26.8331C9.44488 26.8323 9.44202 26.8316 9.43916 26.8307C9.43747 26.8303 9.43587 26.8298 9.43419 26.8294C9.43158 26.8287 9.42889 26.828 9.42619 26.8274C9.42443 26.8269 9.42257 26.8265 9.42072 26.826C9.41811 26.8254 9.41559 26.8248 9.41298 26.8242C9.41104 26.8238 9.40911 26.8232 9.40725 26.8228C9.40473 26.8222 9.4022 26.8217 9.39968 26.8211C9.39766 26.8207 9.39564 26.8202 9.39362 26.8198C9.39126 26.8193 9.38882 26.8188 9.38646 26.8183C9.38427 26.8179 9.38217 26.8174 9.37998 26.817C9.37762 26.8165 9.37518 26.8161 9.37283 26.8157C9.37072 26.8153 9.36862 26.8149 9.36643 26.8145C9.36399 26.8141 9.36163 26.8137 9.35919 26.8132C9.35708 26.8129 9.35498 26.8126 9.35288 26.8122C9.35044 26.8118 9.34799 26.8115 9.34547 26.811C9.34336 26.8107 9.34126 26.8104 9.33907 26.8101C9.33671 26.8098 9.33436 26.8094 9.33208 26.8091C9.32973 26.8088 9.32729 26.8085 9.32493 26.8082C9.32274 26.8079 9.32047 26.8076 9.31828 26.8073C9.31617 26.8071 9.31407 26.8068 9.31197 26.8067C9.30944 26.8064 9.307 26.8061 9.30447 26.8059C9.3022 26.8057 9.30001 26.8055 9.29774 26.8052C9.29547 26.8051 9.29319 26.8048 9.29092 26.8046C9.2884 26.8044 9.28587 26.8042 9.28343 26.8041C9.28006 26.8038 9.2767 26.8036 9.27333 26.8034C9.26996 26.8031 9.26668 26.803 9.26331 26.8028C9.26239 26.8027 9.26138 26.8027 9.26045 26.8026C9.25683 26.8025 9.25329 26.8023 9.24968 26.8022C9.24791 26.8021 9.24622 26.8021 9.24446 26.802C9.24151 26.802 9.23865 26.8019 9.2357 26.8018C9.2341 26.8018 9.2325 26.8018 9.2309 26.8017C9.22787 26.8017 9.22484 26.8016 9.22181 26.8016C9.22131 26.8016 9.2208 26.8016 9.2203 26.8016C9.21878 26.8016 9.21727 26.8016 9.21567 26.8016C9.21348 26.8016 9.21129 26.8016 9.20902 26.8017C9.20725 26.8017 9.2054 26.8018 9.20363 26.8018C9.20102 26.8019 9.1985 26.8019 9.19597 26.802C9.19454 26.802 9.19302 26.802 9.19159 26.8021C9.18882 26.8022 9.18612 26.8023 9.18343 26.8024C9.18174 26.8025 9.18006 26.8025 9.17838 26.8026C9.16836 26.8031 9.15826 26.8038 9.14824 26.8046C9.14748 26.8047 9.14664 26.8047 9.14589 26.8048C9.14277 26.8051 9.13974 26.8054 9.13663 26.8057C9.13545 26.8057 9.13427 26.8059 9.13309 26.806C9.13031 26.8063 9.12753 26.8066 9.12467 26.8069C9.12316 26.8071 9.12173 26.8073 9.12021 26.8074C9.11752 26.8078 9.11474 26.8081 9.11205 26.8084C9.11062 26.8086 9.1091 26.8088 9.10758 26.809C9.10489 26.8094 9.1022 26.8098 9.0995 26.8101C9.09799 26.8104 9.09647 26.8105 9.09496 26.8108C9.0921 26.8112 9.08932 26.8116 9.08646 26.8121L9.08284 26.8127C9.07964 26.8132 9.07652 26.8138 9.07333 26.8143L9.07072 26.8147C9.0676 26.8153 9.0644 26.8159 9.06129 26.8165C9.06011 26.8168 9.05893 26.8169 9.05775 26.8172C9.05472 26.8178 9.05161 26.8184 9.04858 26.819C9.04774 26.8192 9.04698 26.8194 9.04614 26.8195C9.04269 26.8203 9.03932 26.821 9.03595 26.8217C9.03561 26.8218 9.03536 26.8219 9.03502 26.8219C9.00329 26.8291 8.97181 26.8382 8.94075 26.849C8.94016 26.8493 8.93948 26.8494 8.9389 26.8497C8.9357 26.8508 8.93258 26.852 8.92947 26.8531C8.92854 26.8535 8.92753 26.8538 8.92661 26.8541C8.92349 26.8553 8.92038 26.8565 8.91726 26.8577C8.91642 26.858 8.91566 26.8583 8.91482 26.8586C8.91162 26.8599 8.90834 26.8611 8.90514 26.8625C8.90438 26.8627 8.90362 26.8631 8.90295 26.8634C8.89984 26.8647 8.89664 26.866 8.89352 26.8673C8.8926 26.8676 8.89176 26.868 8.89083 26.8685C8.88763 26.8698 8.88443 26.8711 8.88123 26.8726C8.8809 26.8727 8.88048 26.8729 8.88014 26.8731C8.8649 26.8798 8.84984 26.887 8.83494 26.8946L8.62433 27.0031V11.7494C8.62433 11.2845 8.24747 10.9076 7.78256 10.9076C7.31765 10.9076 6.94079 11.2845 6.94079 11.7494V27.6436C6.94079 27.7171 6.95022 27.7884 6.9679 27.8564L5.34169 28.6935L4.22811 29.2668L5.68336 5.47923H9.9757L11.4258 29.1818L11.425 29.1958L10.0622 29.8387V27.6436C10.0622 27.3501 9.90937 27.0778 9.65877 26.925ZM4.18788 1.68353H11.3776V3.7957H4.18788V1.68353ZM18.9255 41.415H5.87141V37.2208H18.9255V41.415ZM23.3137 41.415H20.609V36.3791C20.609 35.9142 20.2321 35.5373 19.7672 35.5373H5.02964C4.56474 35.5373 4.18788 35.9142 4.18788 36.3791V41.415H1.68353V32.4702L8.3787 29.0237V31.1665C8.3787 31.4548 8.52626 31.7231 8.76978 31.8775C8.77391 31.8801 8.77812 31.8827 8.78224 31.8852C8.78317 31.8858 8.78409 31.8863 8.78502 31.8869C8.78822 31.8888 8.79133 31.8907 8.79453 31.8926C8.79588 31.8934 8.79714 31.8941 8.79849 31.8949C8.80152 31.8967 8.80455 31.8983 8.80758 31.9C8.80867 31.9006 8.80977 31.9012 8.81086 31.9019C8.81415 31.9037 8.81743 31.9055 8.82071 31.9073C8.82164 31.9078 8.82256 31.9083 8.82357 31.9088C8.82686 31.9106 8.83022 31.9123 8.83351 31.914C8.8346 31.9146 8.83569 31.9152 8.83679 31.9157C8.84032 31.9175 8.84386 31.9193 8.84748 31.9211C8.84815 31.9214 8.84874 31.9218 8.84941 31.922C8.87164 31.9329 8.89428 31.9429 8.91726 31.9517C8.91735 31.9517 8.91743 31.9518 8.91751 31.9518C9.11533 32.0281 9.33646 32.0276 9.53562 31.947C9.53621 31.9468 9.53689 31.9465 9.53748 31.9462C9.54413 31.9436 9.55078 31.9408 9.55734 31.9378C9.5581 31.9375 9.55886 31.9372 9.55961 31.9368C9.56635 31.9339 9.573 31.9308 9.57965 31.9277L12.6609 30.4742H12.6609L15.8463 28.9714V31.1665C15.8463 31.4548 15.9938 31.7231 16.2374 31.8775C16.2414 31.8801 16.2455 31.8826 16.2496 31.8851C16.2509 31.8859 16.2521 31.8867 16.2533 31.8874C16.2562 31.8891 16.2591 31.8908 16.2619 31.8925C16.2634 31.8935 16.265 31.8943 16.2664 31.8952C16.2692 31.8968 16.272 31.8984 16.2748 31.8999C16.2761 31.9006 16.2773 31.9014 16.2786 31.9021C16.2816 31.9037 16.2847 31.9054 16.2878 31.9071C16.289 31.9078 16.2901 31.9084 16.2914 31.909C16.2943 31.9106 16.2974 31.9122 16.3003 31.9138C16.3017 31.9145 16.3032 31.9153 16.3046 31.9159C16.3078 31.9176 16.311 31.9192 16.3143 31.9208C16.3152 31.9213 16.3161 31.9218 16.3171 31.9222C16.321 31.9241 16.325 31.926 16.3289 31.9279C16.3294 31.9281 16.3297 31.9282 16.3301 31.9285C16.3435 31.9348 16.3571 31.9407 16.3707 31.9462C16.3709 31.9463 16.3713 31.9465 16.3715 31.9466C16.3758 31.9484 16.38 31.95 16.3843 31.9516C16.3847 31.9518 16.3851 31.9519 16.3854 31.9521C16.3898 31.9537 16.3942 31.9553 16.3985 31.957C16.3986 31.957 16.3987 31.9571 16.3988 31.9571C16.4034 31.9588 16.408 31.9604 16.4125 31.962C16.4126 31.962 16.4126 31.962 16.4127 31.9621C16.5962 32.0256 16.7976 32.0241 16.9819 31.9553C16.982 31.9553 16.9821 31.9553 16.9822 31.9552C16.9891 31.9526 16.996 31.9499 17.0029 31.9471C17.0036 31.9468 17.0044 31.9465 17.005 31.9462C17.0117 31.9436 17.0183 31.9408 17.0248 31.9379C17.0256 31.9376 17.0263 31.9372 17.0271 31.9369C17.0338 31.934 17.0405 31.9309 17.0471 31.9278L23.3137 28.9714V41.415ZM36.9551 41.415H29.1645V35.5451H36.9551V41.415ZM38.6385 41.415V34.7033C38.6385 34.2384 38.2616 33.8615 37.7968 33.8615H28.3227C27.8579 33.8615 27.4809 34.2384 27.4809 34.7033V41.415H24.9971V14.8989L34.1617 19.9602V27.2567C34.1617 27.5585 34.3232 27.8372 34.5851 27.9871L41.3164 31.8426V41.415H38.6385Z" fill="white"/>
<path d="M31.9419 21.4076L28.7408 19.5762C28.4803 19.4271 28.1602 19.4281 27.9005 19.5787C27.6408 19.7292 27.4811 20.0067 27.4811 20.3068V31.6079C27.4811 32.0728 27.858 32.4497 28.3228 32.4497H31.5239C31.9887 32.4497 32.3657 32.0728 32.3657 31.6079V22.1383C32.3656 21.8364 32.2039 21.5577 31.9419 21.4076ZM30.6821 30.7662H29.1645V21.7582L30.6821 22.6265V30.7662Z" fill="white"/>
</svg>
