<svg width="47" height="44" viewBox="0 0 47 44" fill="none" xmlns="http://www.w3.org/2000/svg">
<path d="M46.082 37.8203H43.3281V19.8281C43.3281 19.3211 42.9168 18.9102 42.4102 18.9102H33.873V0.917969C33.873 0.410934 33.4621 0 32.9551 0H25.9785C25.4715 0 25.0605 0.410934 25.0605 0.917969C25.0605 1.425 25.4715 1.83594 25.9785 1.83594H32.0371V18.9102H14.9629V1.83594H17.7168C18.2238 1.83594 18.6348 1.425 18.6348 0.917969C18.6348 0.410934 18.2238 0 17.7168 0H14.0449C13.5379 0 13.127 0.410934 13.127 0.917969V18.9102H4.58984C4.08317 18.9102 3.67188 19.3211 3.67188 19.8281V37.8203H0.917969C0.410934 37.8203 0 38.2312 0 38.7383V42.4102C0 42.9168 0.410934 43.3281 0.917969 43.3281H46.082C46.5891 43.3281 47 42.9168 47 42.4102V38.7383C47 38.2312 46.5891 37.8203 46.082 37.8203ZM41.4922 37.8203H37.0856C36.5785 37.8203 36.1676 38.2312 36.1676 38.7383C36.1676 39.245 36.5785 39.6562 37.0856 39.6562H37.82V41.4922H28.0898V39.6562H28.8239C29.3309 39.6562 29.7418 39.245 29.7418 38.7383C29.7418 38.2312 29.3309 37.8203 28.8239 37.8203H24.418V20.7461H41.4922V37.8203ZM18.9102 39.6562V41.4922H9.18005V39.6562H18.9102ZM20.7461 39.6562H26.2539V41.4922H20.7461V39.6562ZM5.50781 20.7461H22.582V37.8203H5.50781V20.7461ZM1.83594 39.6562H7.34411V41.4922H1.83594V39.6562ZM45.1641 41.4922H39.6559V39.6562H45.1641V41.4922Z" fill="white"/>
<path d="M16.7988 4.58984V16.1562C16.7988 16.6633 17.2098 17.0742 17.7168 17.0742H29.2832C29.7902 17.0742 30.2012 16.6633 30.2012 16.1562V4.58984C30.2012 4.08281 29.7902 3.67188 29.2832 3.67188H17.7168C17.2098 3.67188 16.7988 4.08281 16.7988 4.58984ZM28.3652 13.9399L24.7984 10.373L28.3652 6.80624V13.9399ZM27.0668 15.2383H19.9328L23.5 11.6711L27.0668 15.2383ZM23.5 9.07498L19.9328 5.50781H27.0672L23.5 9.07498ZM22.2016 10.373L18.6348 13.9399V6.80624L22.2016 10.373Z" fill="white"/>
<path d="M20.7461 35.0664V23.5C20.7461 22.993 20.3352 22.582 19.8281 22.582H8.26172C7.75504 22.582 7.34375 22.993 7.34375 23.5V35.0664C7.34375 35.5734 7.75504 35.9844 8.26172 35.9844H19.8281C20.3352 35.9844 20.7461 35.5734 20.7461 35.0664ZM9.17969 25.716L12.7469 29.2832L9.17969 32.85V25.716ZM10.4778 24.418H17.6121L14.0449 27.9848L10.4778 24.418ZM14.0449 30.5813L17.6117 34.1484H10.4778L14.0449 30.5813ZM15.3433 29.2832L18.9102 25.716V32.85L15.3433 29.2832Z" fill="white"/>
<path d="M26.2539 23.5V35.0664C26.2539 35.5734 26.6648 35.9844 27.1719 35.9844H38.7383C39.245 35.9844 39.6562 35.5734 39.6562 35.0664V23.5C39.6562 22.993 39.245 22.582 38.7383 22.582H27.1719C26.6648 22.582 26.2539 22.993 26.2539 23.5ZM37.8203 32.85L34.2531 29.2832L37.8203 25.716V32.85ZM36.5219 34.1484H29.3879L32.9551 30.5813L36.5219 34.1484ZM32.9551 27.9848L29.3879 24.418H36.5222L32.9551 27.9848ZM31.6567 29.2832L28.0898 32.85V25.716L31.6567 29.2832Z" fill="white"/>
<path d="M21.848 1.83594C22.355 1.83594 22.766 1.425 22.766 0.917969C22.766 0.410934 22.355 0 21.848 0H21.8473C21.3403 0 20.9297 0.410934 20.9297 0.917969C20.9297 1.425 21.341 1.83594 21.848 1.83594Z" fill="white"/>
<path d="M32.9551 37.8203H32.9544C32.4473 37.8203 32.0367 38.2312 32.0367 38.7383C32.0367 39.245 32.448 39.6562 32.9551 39.6562C33.4621 39.6562 33.873 39.245 33.873 38.7383C33.873 38.2312 33.4621 37.8203 32.9551 37.8203Z" fill="white"/>
</svg>
