<svg width="41" height="49" viewBox="0 0 41 49" fill="none" xmlns="http://www.w3.org/2000/svg">
<path d="M41.0001 35.0541C41.0001 33.9712 40.5317 32.9958 39.7872 32.32C40.5318 31.6446 41.0001 30.6699 41.0001 29.5878C41.0001 27.5523 39.3455 25.8964 37.3117 25.8964H25.6264C26.6755 23.043 27.8937 18.2454 25.8057 15.0645C25.0351 13.8912 24.3474 13.1781 23.0811 12.239C22.6996 11.9557 21.8066 11.2921 20.8977 11.6667C20.0261 12.026 19.7639 13.0683 19.6331 13.935L19.6258 13.9826C19.3724 15.6487 18.9007 18.7499 17.7781 21.3946C16.4922 24.4239 14.809 25.8965 12.632 25.8965H10.6317C10.3912 24.3601 9.05805 23.1809 7.45416 23.1809H3.25278C1.48074 23.1808 0.0390625 24.6226 0.0390625 26.3949V31.4433C0.0390625 31.9719 0.467526 32.4004 0.996096 32.4004C1.52467 32.4004 1.95313 31.9719 1.95313 31.4433V26.3949C1.95313 25.6781 2.53615 25.0948 3.25278 25.0948H7.45416C8.17231 25.0948 8.75649 25.6781 8.75649 26.3949V45.086C8.75649 45.8028 8.17231 46.386 7.45416 46.386H3.25278C2.53615 46.386 1.95313 45.8027 1.95313 45.086V40.0375C1.95313 39.5089 1.52467 39.0804 0.996096 39.0804C0.467526 39.0804 0.0390625 39.5089 0.0390625 40.0375V45.086C0.0390625 46.8583 1.48074 48.3 3.25278 48.3H7.45416C9.05805 48.3 10.3912 47.1209 10.6317 45.5845C10.6317 45.5845 13.5492 45.5841 13.7546 45.5992C13.7676 45.6221 13.7809 45.6456 13.7933 45.6674C13.9124 45.8784 14.0924 46.1974 14.4072 46.6169C15.5085 48.0888 18.1825 48.9999 20.0285 48.9999H35.0631H35.2069C37.0538 48.9999 38.5562 47.496 38.5562 45.6475C38.5562 45.0924 38.4197 44.569 38.1798 44.1075C39.796 43.7157 41.0001 42.2566 41.0001 40.5204C41.0001 39.4383 40.5317 38.4636 39.7872 37.7883C40.5317 37.1124 41.0001 36.137 41.0001 35.0541ZM26.5161 47.0859H20.0286C18.5483 47.0859 16.5612 46.3008 15.939 45.4692C15.6982 45.1482 15.5663 44.9145 15.4602 44.7267C14.8635 43.6695 14.3735 43.6682 12.7563 43.6705H10.6707V27.8103H12.6322C15.6196 27.8103 17.9437 25.9033 19.5401 22.1423C20.7568 19.2758 21.2521 16.0197 21.5181 14.2703L21.5256 14.2216C21.571 13.9209 21.62 13.7178 21.6616 13.5835C21.734 13.6286 21.8257 13.6906 21.9404 13.7758C23.0297 14.5836 23.559 15.1302 24.2058 16.1149C26.0023 18.8517 24.4307 23.6985 23.6718 25.6546C23.5808 25.8884 23.3043 26.5999 23.7223 27.2109C24.1323 27.8103 24.8714 27.8103 25.1143 27.8103H26.2688C25.9778 28.3379 25.8119 28.9437 25.8119 29.5877C25.8119 30.6799 26.2893 31.6622 27.046 32.3382C26.313 33.0133 25.8526 33.9808 25.8526 35.054C25.8526 36.1369 26.321 37.1123 27.0655 37.7882C26.321 38.4635 25.8526 39.4382 25.8526 40.5203C25.8526 41.6376 26.3519 42.6398 27.138 43.3174C26.5529 43.9208 26.1916 44.7425 26.1916 45.6475C26.1915 46.1621 26.3082 46.6498 26.5161 47.0859ZM35.207 47.0859H29.5409C28.7494 47.0859 28.1056 46.4407 28.1056 45.6476C28.1056 44.8559 28.7495 44.212 29.5409 44.212H35.207C35.9984 44.212 36.6422 44.8559 36.6422 45.6476C36.6422 46.4407 35.9983 47.0859 35.207 47.0859ZM37.3117 42.2978H35.207H29.5409C28.5625 42.2978 27.7666 41.5004 27.7666 40.5204C27.7666 39.5417 28.5625 38.7457 29.5409 38.7457H37.3117C38.2901 38.7457 39.086 39.5418 39.086 40.5204C39.086 41.5005 38.2901 42.2978 37.3117 42.2978ZM37.3117 36.8316H29.5409C28.5625 36.8316 27.7666 36.0342 27.7666 35.0541C27.7666 34.074 28.5625 33.2766 29.5409 33.2766H37.3117C38.2901 33.2766 39.086 34.074 39.086 35.0541C39.086 36.0342 38.2901 36.8316 37.3117 36.8316ZM37.3117 31.3625H29.5002C28.5218 31.3625 27.7258 30.5664 27.7258 29.5878C27.7258 28.6077 28.5218 27.8104 29.5002 27.8104H37.3117C38.2901 27.8104 39.086 28.6078 39.086 29.5878C39.086 30.5664 38.2901 31.3625 37.3117 31.3625Z" fill="white"/>
<path d="M20.7827 29.4753C20.2591 29.5472 19.8929 30.0299 19.9647 30.5536C20.1677 32.0335 19.8827 33.3291 19.1402 34.3001C18.2359 35.4827 16.6775 36.2249 14.508 36.5059C13.9839 36.5738 13.614 37.0538 13.6819 37.578C13.7444 38.0605 14.156 38.4122 14.6298 38.4122C14.6707 38.4122 14.7123 38.4096 14.754 38.4041C17.4479 38.0551 19.4352 37.0654 20.6607 35.4627C21.7198 34.0775 22.1348 32.29 21.8609 30.2934C21.7892 29.7698 21.3071 29.4035 20.7827 29.4753Z" fill="white"/>
<path d="M22.0873 7.29901C22.6158 7.29901 23.0443 6.87054 23.0443 6.34197V0.957033C23.0443 0.428464 22.6158 0 22.0873 0C21.5588 0 21.1302 0.428464 21.1302 0.957033V6.34197C21.1302 6.87054 21.5587 7.29901 22.0873 7.29901Z" fill="white"/>
<path d="M29.0007 9.36924C29.1635 9.47729 29.3473 9.52897 29.529 9.52897C29.8389 9.52897 30.1431 9.37862 30.3273 9.10108L33.2946 4.6304C33.5869 4.18997 33.4669 3.59603 33.0264 3.30376C32.5861 3.01157 31.992 3.13149 31.6998 3.57192L28.7325 8.0426C28.4403 8.48303 28.5603 9.07696 29.0007 9.36924Z" fill="white"/>
<path d="M13.8474 9.1015C14.0318 9.37885 14.3357 9.52901 14.6455 9.52901C14.8273 9.52901 15.0113 9.47723 15.1742 9.36909C15.6144 9.07662 15.7342 8.48258 15.4418 8.04235L12.4717 3.57166C12.1791 3.13133 11.5853 3.01151 11.145 3.30408C10.7047 3.59655 10.5849 4.19058 10.8774 4.63081L13.8474 9.1015Z" fill="white"/>
<path d="M0.996096 36.7004C1.52467 36.7004 1.95313 36.2693 1.95313 35.7407C1.95313 35.2122 1.52467 34.7837 0.996096 34.7837C0.467526 34.7837 0.0390625 35.2122 0.0390625 35.7407V35.7462C0.0390625 36.2747 0.467526 36.7004 0.996096 36.7004Z" fill="white"/>
</svg>
