<svg width="52" height="34" viewBox="0 0 52 34" fill="none" xmlns="http://www.w3.org/2000/svg">
<path d="M50.7168 18.48L48.4055 17.7454V10.866C48.4055 9.77278 47.5161 8.88338 46.4229 8.88338H41.3497C40.9289 8.88338 40.588 9.22443 40.588 9.64511C40.588 10.0658 40.9289 10.4068 41.3497 10.4068H46.4229C46.676 10.4068 46.882 10.6128 46.882 10.866V11.9414H41.2457C39.704 11.9414 38.4498 13.1956 38.4498 14.7373V16.2684C38.4498 17.81 39.7041 19.0642 41.2457 19.0642H47.5257L50.2554 19.932C50.3879 19.974 50.4767 20.0955 50.4767 20.2345V21.4255H49.7463C49.3255 21.4255 48.9845 21.7665 48.9845 22.1873C48.9845 22.608 49.3255 22.949 49.7463 22.949H50.4767V23.9269C50.4767 24.102 50.3343 24.2444 50.1591 24.2444H47.5137C46.5152 22.0506 44.322 20.5967 41.8582 20.5967C39.3984 20.5967 37.2029 22.047 36.2028 24.2444H33.9979C33.9979 20.7169 33.9979 17.7726 33.9979 14.2169C33.9979 12.1161 35.7071 10.407 37.8078 10.407H38.3042C38.725 10.407 39.0659 10.0659 39.0659 9.64521C39.0659 9.22453 38.725 8.88348 38.3042 8.88348H37.8078C34.867 8.88348 32.4744 11.276 32.4744 14.2169V15.5415H30.8138C29.9558 15.5415 29.2579 16.2395 29.2579 17.0974V21.4256H24.1617V20.1905H25.3769C25.6317 20.1905 25.8697 20.0631 26.0109 19.8511L34.2456 7.48889H35.0957C35.7073 7.48889 36.2889 7.25752 36.7335 6.83755L39.0122 4.68468L42.4586 3.63836C42.7795 3.54096 42.999 3.2449 42.999 2.90943V0.761737C42.999 0.341055 42.6581 0 42.2373 0H37.9737C37.362 0 36.7803 0.231365 36.3358 0.651336L34.1473 2.7193H23.9172C23.4964 2.7193 23.1555 3.06035 23.1555 3.48104C23.1555 3.90172 23.4964 4.24277 23.9172 4.24277H34.4504C34.645 4.24277 34.8322 4.16833 34.9736 4.03477L37.3824 1.7587C37.5428 1.60706 37.7529 1.52358 37.9738 1.52358H41.4756V2.34473L38.3981 3.27902C38.2854 3.31325 38.182 3.37328 38.0963 3.45422L35.6873 5.73019C35.5268 5.88193 35.3167 5.96542 35.0958 5.96542C34.2757 5.96542 9.52545 5.96542 7.12049 5.96542C6.90467 5.96542 6.6991 6.05693 6.55467 6.21719L3.02357 10.1356C2.69531 10.4998 2.15001 10.5079 1.80712 10.1989C1.45418 9.88095 1.42585 9.33524 1.74364 8.9824L5.7583 4.52726C5.92131 4.34637 6.15461 4.24257 6.39826 4.24257H20.8715C21.2922 4.24257 21.6332 3.90151 21.6332 3.48083C21.6332 3.06015 21.2922 2.7191 20.8715 2.7191H6.39826C5.72377 2.7191 5.07802 3.00642 4.62667 3.50744L0.611906 7.96259C-0.268154 8.93944 -0.189543 10.4503 0.787207 11.3306C1.76883 12.2151 3.27727 12.1298 4.1553 11.1554L4.23676 11.0651L5.20406 12.2398V21.4254H4.79465C3.19856 21.4254 1.74588 22.3032 1.00344 23.7162L0.511966 24.6517C0.387854 24.8879 0.396385 25.1716 0.534412 25.4C0.672337 25.6282 0.919648 25.7677 1.18636 25.7677H5.69919C5.64191 26.1062 5.61032 26.4534 5.61032 26.808C5.61032 30.23 8.39869 33.0194 11.8218 33.0194C15.244 33.0194 18.0332 30.231 18.0332 26.808C18.0332 26.4534 18.0017 26.1062 17.9444 25.7677H20.2653V26.8997C20.2653 27.8149 21.0098 28.5593 21.9249 28.5593H23.4C23.8208 28.5593 24.1618 28.2184 24.1618 27.7976C24.1618 27.3768 23.8208 27.0359 23.4 27.0359H21.9248C21.8497 27.0359 21.7887 26.9747 21.7887 26.8997V25.7677H30.4431V26.8997C30.4431 26.9747 30.3821 27.0359 30.3071 27.0359H26.4455C26.0247 27.0359 25.6837 27.3768 25.6837 27.7976C25.6837 28.2184 26.0247 28.5593 26.4455 28.5593H30.3071C31.2222 28.5593 31.9666 27.8149 31.9666 26.8997V25.7677H35.7356C35.6782 26.1062 35.6467 26.4534 35.6467 26.808C35.6467 30.2301 38.4351 33.0194 41.8581 33.0194C45.2803 33.0194 48.0695 30.231 48.0695 26.808C48.0695 26.4534 48.0381 26.1062 47.9807 25.7677H50.1589C51.1741 25.7677 52 24.9419 52 23.9268V20.2345C52.0002 19.4288 51.4843 18.7238 50.7168 18.48ZM39.9733 16.2683V14.7372C39.9733 14.0356 40.5441 13.4648 41.2457 13.4648H46.882V17.5408H41.2457C40.5441 17.5408 39.9733 16.9699 39.9733 16.2683ZM30.7815 17.0971C30.7815 17.0792 30.7961 17.0646 30.8139 17.0646H32.4745V21.4254H30.7815V17.0971ZM22.6383 21.4254H14.9157C14.7611 21.3361 14.6026 21.2532 14.44 21.1773V20.1903H22.6383V21.4254ZM16.3784 27.5697H16.4468C16.3277 28.2952 16.0414 28.9646 15.6291 29.538L15.5825 29.4914C15.2849 29.194 14.8027 29.194 14.5052 29.4914C14.2077 29.789 14.2077 30.2712 14.5052 30.5687L14.5518 30.6153C13.9784 31.0277 13.3089 31.314 12.5835 31.433V31.3647C12.5835 30.9439 12.2425 30.6029 11.8217 30.6029C11.4009 30.6029 11.06 30.9439 11.06 31.3647V31.433C10.3345 31.314 9.6651 31.0277 9.09166 30.6153L9.13828 30.5687C9.43577 30.2711 9.43577 29.7889 9.13828 29.4914C8.8407 29.194 8.35847 29.194 8.06098 29.4914L8.01436 29.538C7.60201 28.9646 7.3157 28.2951 7.19656 27.5697H7.26502C7.6858 27.5697 8.02675 27.2287 8.02675 26.808C8.02675 26.3872 7.6858 26.0462 7.26502 26.0462H7.19656C7.3157 25.3207 7.60191 24.6513 8.01436 24.0779L8.06098 24.1246C8.35867 24.4221 8.8408 24.422 9.13828 24.1246C9.43577 23.827 9.43577 23.3448 9.13828 23.0473L9.09166 23.0007C9.6651 22.5883 10.3345 22.3021 11.06 22.183V22.2514C11.06 22.6721 11.4009 23.0131 11.8217 23.0131C12.2425 23.0131 12.5835 22.6721 12.5835 22.2514V22.183C13.3089 22.302 13.9784 22.5883 14.5518 23.0007L14.5052 23.0473C14.2077 23.3449 14.2077 23.8271 14.5052 24.1246C14.654 24.2733 14.849 24.3477 15.0439 24.3477C15.2388 24.3477 15.4338 24.2733 15.5826 24.1246L15.6292 24.078C16.0415 24.6514 16.3279 25.3208 16.4469 26.0463H16.3785C15.9578 26.0463 15.6168 26.3873 15.6168 26.8081C15.6168 27.2288 15.9577 27.5697 16.3784 27.5697ZM18.0874 7.48858L11.8079 17.863C10.8612 16.7133 9.90926 15.5573 8.94541 14.3868L13.0863 7.48869H18.0874V7.48858ZM24.8902 7.48858L18.18 18.6667C17.2256 18.6667 14.162 18.6667 13.1023 18.6667L19.8683 7.48858H24.8902ZM11.5222 19.9127C11.6669 20.0884 11.8827 20.1902 12.1103 20.1902H12.9165V20.6951C12.5608 20.6315 12.1954 20.5965 11.8217 20.5965C10.9328 20.5965 10.0877 20.7855 9.32242 21.1233V17.2412L11.5222 19.9127ZM24.9691 18.6668C23.9138 18.6668 21.0116 18.6668 19.957 18.6668L26.6671 7.48869H32.4151L24.9691 18.6668ZM7.45951 7.48858H11.3094L7.91778 13.1385C6.93046 11.9395 6.1543 10.997 5.26805 9.92056L7.45951 7.48858ZM6.72743 14.0899L7.79894 15.3911V21.4254H6.72743V14.0899ZM2.45551 24.2443C2.95775 23.4403 3.83598 22.9489 4.79445 22.9489H6.95982C6.64517 23.3445 6.37795 23.779 6.16619 24.2443H2.45551ZM17.4771 24.2443C17.2653 23.779 16.9982 23.3445 16.6835 22.9489H32.4745V24.2443C30.6519 24.2443 19.0448 24.2443 17.4771 24.2443ZM46.4149 27.5697H46.4833C46.3642 28.2952 46.0779 28.9646 45.6656 29.538L45.619 29.4914C45.3214 29.194 44.8392 29.194 44.5417 29.4914C44.2442 29.789 44.2442 30.2712 44.5417 30.5687L44.5883 30.6153C44.0149 31.0277 43.3454 31.314 42.62 31.433V31.3647C42.62 30.9439 42.279 30.6029 41.8582 30.6029C41.4375 30.6029 41.0965 30.9439 41.0965 31.3647V31.433C40.371 31.3139 39.7016 31.0277 39.1282 30.6153L39.1748 30.5687C39.4723 30.2711 39.4723 29.7889 39.1748 29.4914C38.8772 29.194 38.395 29.194 38.0975 29.4914L38.0509 29.538C37.6385 28.9646 37.3523 28.2952 37.2332 27.5697H37.3015C37.7223 27.5697 38.0633 27.2287 38.0633 26.808C38.0633 26.3872 37.7223 26.0462 37.3015 26.0462H37.2332C37.3522 25.3207 37.6385 24.6513 38.0509 24.0779L38.0975 24.1245C38.2463 24.2732 38.4413 24.3475 38.6362 24.3475C38.8311 24.3475 39.0261 24.2732 39.1749 24.1245C39.4724 23.8269 39.4724 23.3447 39.1749 23.0472L39.1283 23.0006C39.7017 22.5882 40.3711 22.3019 41.0966 22.1829V22.2513C41.0966 22.672 41.4376 23.013 41.8583 23.013C42.2791 23.013 42.6201 22.672 42.6201 22.2513V22.1829C43.3456 22.3019 44.015 22.5882 44.5884 23.0006L44.5418 23.0472C44.2443 23.3448 44.2443 23.827 44.5418 24.1245C44.6906 24.2732 44.8856 24.3475 45.0805 24.3475C45.2754 24.3475 45.4704 24.2732 45.6192 24.1245L45.6658 24.0779C46.0782 24.6513 46.3645 25.3207 46.4835 26.0462H46.4151C45.9944 26.0462 45.6534 26.3872 45.6534 26.808C45.6534 27.2287 45.9943 27.5697 46.4149 27.5697Z" fill="white"/>
<path d="M41.8585 24.3059C40.4788 24.3059 39.3564 25.4283 39.3564 26.8079C39.3564 28.1875 40.4788 29.3099 41.8585 29.3099C43.2381 29.3099 44.3605 28.1875 44.3605 26.8079C44.3605 25.4283 43.2381 24.3059 41.8585 24.3059ZM41.8585 27.7865C41.3189 27.7865 40.8799 27.3475 40.8799 26.8079C40.8799 26.2683 41.3188 25.8294 41.8585 25.8294C42.3981 25.8294 42.837 26.2683 42.837 26.8079C42.837 27.3475 42.3981 27.7865 41.8585 27.7865Z" fill="white"/>
<path d="M11.8214 24.3059C10.4418 24.3059 9.31934 25.4283 9.31934 26.8079C9.31934 28.1875 10.4418 29.3099 11.8214 29.3099C13.2011 29.3099 14.3235 28.1875 14.3235 26.8079C14.3235 25.4283 13.2011 24.3059 11.8214 24.3059ZM11.8214 27.7865C11.2818 27.7865 10.8428 27.3475 10.8428 26.8079C10.8428 26.2683 11.2817 25.8294 11.8214 25.8294C12.3609 25.8294 12.8 26.2683 12.8 26.8079C12.8 27.3475 12.3609 27.7865 11.8214 27.7865Z" fill="white"/>
</svg>
