<svg width="54" height="34" viewBox="0 0 54 34" fill="none" xmlns="http://www.w3.org/2000/svg">
<path d="M51.7212 19.1381L49.3642 18.3888V11.3735C49.3642 10.2586 48.4572 9.35159 47.3423 9.35159H42.1688C41.7397 9.35159 41.392 9.69929 41.392 10.1284C41.392 10.5575 41.7397 10.9052 42.1688 10.9052H47.3423C47.6004 10.9052 47.8106 11.1153 47.8106 11.3735V12.4701H42.0628C40.4906 12.4701 39.2116 13.7492 39.2116 15.3213V16.8827C39.2116 18.4548 40.4907 19.7339 42.0628 19.7339H48.4673L51.2507 20.6188C51.3857 20.6616 51.4763 20.7855 51.4763 20.9272V22.1418H50.7315C50.3024 22.1418 49.9547 22.4895 49.9547 22.9186C49.9547 23.3478 50.3024 23.6955 50.7315 23.6955H51.4763V24.6927C51.4763 24.8711 51.3311 25.0163 51.1525 25.0163H48.4547C47.4362 22.7786 45.1991 21.2966 42.6875 21.2966C40.1791 21.2966 37.9402 22.7756 36.9203 25.0163H34.6718C34.6718 24.0435 34.6718 16.1543 34.6718 14.7906C34.6718 12.6483 36.4148 10.9053 38.5571 10.9053H39.0633C39.4924 10.9053 39.8401 10.5576 39.8401 10.1285C39.8401 9.6994 39.4924 9.3517 39.0633 9.3517H38.5571C35.5581 9.3517 33.1182 11.7916 33.1182 14.7906V19.2486H31.4247C30.5498 19.2486 29.838 19.9604 29.838 20.8353V22.1418H24.5596V20.3879C28.9434 19.8878 32.3608 16.1571 32.3608 11.6416V11.4677C32.3608 6.61248 28.4107 2.66237 23.5554 2.66237H20.5171V1.35413C20.5171 0.607461 19.9096 0 19.1629 0H13.1981C12.4515 0 11.8439 0.607461 11.8439 1.35413V2.66237H8.80524C7.00171 2.66237 5.26663 3.20562 3.7876 4.23328C3.43524 4.47802 3.34803 4.96213 3.59288 5.31438C3.83773 5.66674 4.32183 5.75395 4.67398 5.5091C5.8916 4.66311 7.3202 4.21598 8.80524 4.21598H13.3335V18.8932H8.80524C4.80666 18.8932 1.55361 15.6401 1.55361 11.6415V11.4676C1.55361 10.0638 1.95713 8.70042 2.72058 7.52496C2.95424 7.16515 2.85201 6.68405 2.4922 6.45038C2.13238 6.21682 1.65138 6.31895 1.41762 6.67876C0.490216 8.10674 0 9.76268 0 11.4676V11.6415C0 16.1571 3.41732 19.8878 7.80119 20.3879V22.1417H4.89056C3.26289 22.1417 1.78137 23.0369 1.02424 24.4779L0.523049 25.4318C0.396585 25.6726 0.405182 25.962 0.545835 26.1948C0.686489 26.4275 0.938691 26.5698 1.21068 26.5698H5.81288C5.75437 26.9151 5.72226 27.2692 5.72226 27.6308C5.72226 31.1206 8.56578 33.965 12.0565 33.965C15.5463 33.965 18.3909 31.1217 18.3909 27.6308C18.3909 27.2692 18.3588 26.9151 18.3003 26.5698H20.6672V27.7243C20.6672 28.6575 21.4264 29.4167 22.3596 29.4167H23.8638C24.2928 29.4167 24.6406 29.069 24.6406 28.6399C24.6406 28.2108 24.2928 27.8631 23.8638 27.8631H22.3596C22.283 27.8631 22.2208 27.8008 22.2208 27.7243V26.5699H31.0464V27.7243C31.0464 27.8008 30.9842 27.8631 30.9076 27.8631H26.9696C26.5406 27.8631 26.1928 28.2108 26.1928 28.6399C26.1928 29.069 26.5406 29.4167 26.9696 29.4167H30.9076C31.8408 29.4167 32.6 28.6575 32.6 27.7243V26.5698H33.8947H36.4436C36.385 26.9151 36.3529 27.2692 36.3529 27.6308C36.3529 31.1206 39.1964 33.965 42.6872 33.965C46.177 33.965 49.0215 31.1215 49.0215 27.6308C49.0215 27.2692 48.9894 26.9151 48.9309 26.5698H51.1522C52.1874 26.5698 53.0296 25.7277 53.0296 24.6926V20.9272C53.0299 20.1058 52.5038 19.3867 51.7212 19.1381ZM40.7651 16.8826V15.3212C40.7651 14.6057 41.3472 14.0236 42.0626 14.0236H47.8105V18.1802H42.0626C41.3473 18.1802 40.7651 17.5982 40.7651 16.8826ZM31.3915 20.8352C31.3915 20.8169 31.4064 20.8021 31.4246 20.8021H33.1181V22.1418H31.3915V20.8352ZM15.2119 22.1417C14.8192 21.9151 14.4008 21.7284 13.9611 21.5894V20.4468H14.1103H18.3719H18.3995V22.1416H15.2119V22.1417ZM16.7035 28.4076H16.7733C16.6518 29.1474 16.3599 29.83 15.9393 30.4148L15.8917 30.3673C15.5882 30.064 15.0965 30.0639 14.7931 30.3674C14.4897 30.6708 14.4898 31.1626 14.7931 31.4659L14.8406 31.5134C14.2558 31.9339 13.5732 32.2259 12.8333 32.3473V32.2776C12.8333 31.8485 12.4855 31.5008 12.0565 31.5008C11.6275 31.5008 11.2797 31.8485 11.2797 32.2776V32.3473C10.5399 32.2258 9.85724 31.9338 9.27246 31.5134L9.32 31.4659C9.62337 31.1624 9.62337 30.6706 9.32 30.3673C9.01664 30.064 8.52476 30.064 8.2215 30.3673L8.17396 30.4148C7.75345 29.83 7.46147 29.1474 7.34008 28.4076H7.40979C7.83879 28.4076 8.18659 28.0599 8.18659 27.6308C8.18659 27.2016 7.83879 26.8539 7.40979 26.8539H7.34008C7.46158 26.1141 7.75345 25.4315 8.17396 24.8467L8.2215 24.8942C8.37313 25.0459 8.57199 25.1217 8.77075 25.1217C8.96951 25.1217 9.16837 25.0459 9.32 24.8942C9.62337 24.5907 9.62337 24.099 9.32 23.7956L9.27246 23.7481C9.85724 23.3276 10.5399 23.0357 11.2797 22.9142V22.9839C11.2797 23.413 11.6275 23.7607 12.0565 23.7607C12.4855 23.7607 12.8333 23.413 12.8333 22.9839V22.9142C13.5732 23.0356 14.2558 23.3276 14.8406 23.7481L14.7931 23.7956C14.4897 24.099 14.4897 24.5909 14.7931 24.8941C14.9448 25.0459 15.1436 25.1217 15.3424 25.1217C15.5412 25.1217 15.74 25.0459 15.8917 24.8942L15.9393 24.8467C16.3598 25.4315 16.6518 26.1142 16.7733 26.8539H16.7035C16.2745 26.8539 15.9267 27.2016 15.9267 27.6308C15.9267 28.0599 16.2745 28.4076 16.7035 28.4076ZM12.0566 21.2965C11.0906 21.2965 10.1748 21.5147 9.3548 21.9031V20.4469H12.4074V21.3066C12.2912 21.3002 12.1744 21.2965 12.0566 21.2965ZM17.5951 12.4295H14.8871V10.6795H17.5951V12.4295ZM17.5951 9.12601H14.8871V7.37613H17.5951V9.12601ZM14.8871 13.9831H17.5951V15.7331H14.8871V13.9831ZM19.9531 20.4469H23.0059V22.1417H19.9531V20.4469ZM30.807 11.4676V11.6415C30.807 15.6401 27.5539 18.8932 23.5552 18.8932H19.1487V4.21598H23.5552C27.5539 4.21598 30.807 7.46903 30.807 11.4676ZM13.3973 1.55351H18.9633V2.66227H18.3719H14.1103H13.3972V1.55351H13.3973ZM17.5951 4.21598V5.82262H14.8871V4.21598H17.5951ZM14.8871 17.2867H17.5951V18.8932H14.8871V17.2867ZM2.50535 25.0162C3.01742 24.1964 3.91303 23.6954 4.89056 23.6954H7.09865C6.77778 24.0988 6.50538 24.5419 6.28943 25.0162H2.50535ZM17.0147 23.6954H33.1181V25.0162H17.8239C17.608 24.5419 17.3356 24.0987 17.0147 23.6954ZM47.3343 28.4076H47.404C47.2825 29.1474 46.9906 29.83 46.5701 30.4148L46.5225 30.3673C46.2191 30.064 45.7273 30.064 45.4239 30.3673C45.1206 30.6708 45.1206 31.1625 45.4239 31.4659L45.4715 31.5134C44.8867 31.9339 44.204 32.2258 43.4642 32.3473V32.2776C43.4642 31.8485 43.1165 31.5008 42.6874 31.5008C42.2583 31.5008 41.9106 31.8485 41.9106 32.2776V32.3473C41.1708 32.2258 40.4881 31.9339 39.9033 31.5134L39.9509 31.4659C40.2542 31.1624 40.2542 30.6706 39.9509 30.3673C39.6474 30.064 39.1556 30.064 38.8523 30.3673L38.8047 30.4148C38.3842 29.83 38.0922 29.1474 37.9709 28.4076H38.0406C38.4697 28.4076 38.8174 28.0599 38.8174 27.6308C38.8174 27.2016 38.4697 26.8539 38.0406 26.8539H37.9709C38.0922 26.1141 38.3842 25.4315 38.8047 24.8467L38.8523 24.8942C39.004 25.0459 39.2029 25.1217 39.4016 25.1217C39.6004 25.1217 39.7992 25.0459 39.951 24.8942C40.2544 24.5907 40.2544 24.099 39.951 23.7956L39.9034 23.7481C40.4882 23.3276 41.1709 23.0357 41.9107 22.9142V22.9839C41.9107 23.413 42.2584 23.7607 42.6875 23.7607C43.1166 23.7607 43.4643 23.413 43.4643 22.9839V22.9142C44.2041 23.0356 44.8868 23.3276 45.4716 23.7481L45.424 23.7956C45.1207 24.0991 45.1207 24.5909 45.424 24.8942C45.5758 25.0459 45.7746 25.1217 45.9734 25.1217C46.1722 25.1217 46.371 25.0459 46.5228 24.8942L46.5703 24.8467C46.9908 25.4315 47.2828 26.1141 47.4042 26.8539H47.3345C46.9054 26.8539 46.5577 27.2016 46.5577 27.6308C46.5577 28.0599 46.9053 28.4076 47.3343 28.4076Z" fill="white"/>
<path d="M42.6873 25.0792C41.2803 25.0792 40.1357 26.2238 40.1357 27.6308C40.1357 29.0377 41.2803 30.1823 42.6873 30.1823C44.0942 30.1823 45.2388 29.0377 45.2388 27.6308C45.2388 26.2238 44.0942 25.0792 42.6873 25.0792ZM42.6873 28.6287C42.1371 28.6287 41.6894 28.1811 41.6894 27.6308C41.6894 27.0805 42.137 26.6328 42.6873 26.6328C43.2376 26.6328 43.6852 27.0805 43.6852 27.6308C43.6852 28.1811 43.2376 28.6287 42.6873 28.6287Z" fill="white"/>
<path d="M12.0564 25.0792C10.6496 25.0792 9.50488 26.2238 9.50488 27.6308C9.50488 29.0377 10.6495 30.1823 12.0564 30.1823C13.4634 30.1823 14.608 29.0377 14.608 27.6308C14.608 26.2238 13.4634 25.0792 12.0564 25.0792ZM12.0564 28.6287C11.5062 28.6287 11.0585 28.1811 11.0585 27.6308C11.0585 27.0805 11.5061 26.6328 12.0564 26.6328C12.6067 26.6328 13.0544 27.0805 13.0544 27.6308C13.0544 28.1811 12.6067 28.6287 12.0564 28.6287Z" fill="white"/>
</svg>
