<svg width="53" height="39" viewBox="0 0 53 39" fill="none" xmlns="http://www.w3.org/2000/svg">
<path d="M51.0256 24.3947C51.587 24.3947 52.0421 23.9397 52.0421 23.3783V5.08263C52.0421 4.5212 51.587 4.06618 51.0256 4.06618H29.3499V1.01645C29.3499 0.455019 28.8949 0 28.3334 0H23.2512C22.6902 0 22.2348 0.455019 22.2348 1.01645C22.2348 1.57787 22.6902 2.03289 23.2512 2.03289H27.317V22.3618H13.0868V2.03289H14.1032C14.6646 2.03289 15.1196 1.57787 15.1196 1.01645C15.1196 0.455019 14.6646 0 14.1032 0H12.0703C11.5089 0 11.0539 0.455019 11.0539 1.01645V6.09908H4.7904C4.71854 6.09908 4.64826 6.10662 4.58076 6.12091C4.51286 6.10662 4.44298 6.09908 4.37112 6.09908H3.46823C2.9072 6.09908 2.45178 6.5541 2.45178 7.11552C2.45178 7.67655 2.9072 8.13197 3.46823 8.13197H3.77356V10.1649H3.46823C2.9072 10.1649 2.45178 10.6199 2.45178 11.1813C2.45178 11.7423 2.9072 12.1978 3.46823 12.1978H3.77356V14.2306H3.46823C2.9072 14.2306 2.45178 14.6857 2.45178 15.2471C2.45178 15.8081 2.9072 16.2635 3.46823 16.2635H3.77356V18.2964H3.46823C2.9072 18.2964 2.45178 18.7515 2.45178 19.3129C2.45178 19.8739 2.9072 20.3293 3.46823 20.3293H3.77356V22.3622H3.46823C2.9072 22.3622 2.45178 22.8172 2.45178 23.3787C2.45178 23.9397 2.9072 24.3951 3.46823 24.3951H3.77356V29.4773C3.77356 30.0384 4.22897 30.4938 4.79 30.4938H11.0539V32.5267H1.01645C0.455019 32.5267 0 32.9817 0 33.5431V37.6089C0 38.17 0.455019 38.6254 1.01645 38.6254H51.0256C51.587 38.6254 52.0421 38.17 52.0421 37.6089V33.5431C52.0421 32.9817 51.587 32.5267 51.0256 32.5267H47.9763V24.3947H51.0256ZM50.0092 6.09908V22.3618H29.3499V6.09908H50.0092ZM5.80685 8.13197H11.0539V23.3783C11.0539 23.9397 11.5089 24.3947 12.0703 24.3947H23.2512V28.4609H5.80685V8.13197ZM13.0868 30.4938H16.1365V32.5267H13.0868V30.4938ZM23.2512 34.5596V36.5925H20.2015V34.5596H23.2512ZM28.3334 34.5596V36.5925H25.2841V34.5596H28.3334ZM33.4161 34.5596V36.5925H30.3663V34.5596H33.4161ZM2.03289 34.5596H18.1686V36.5925H2.03289V34.5596ZM50.0092 36.5925H35.449V34.5596H50.0092V36.5925ZM45.9434 28.4609H44.9265C44.3655 28.4609 43.9101 28.9159 43.9101 29.4773C43.9101 30.0384 44.3655 30.4938 44.9265 30.4938H45.9434V32.5267H18.1694V30.4938H35.7785C36.34 30.4938 36.795 30.0384 36.795 29.4773C36.795 28.9159 36.34 28.4609 35.7785 28.4609H25.2841V24.3947H45.9434V28.4609Z" fill="white"/>
<path d="M43.3016 10.1647H46.9604C47.5214 10.1647 47.9769 9.70971 47.9769 9.14828C47.9769 8.58685 47.5214 8.13184 46.9604 8.13184H43.3016C42.7402 8.13184 42.2852 8.58685 42.2852 9.14828C42.2852 9.70971 42.7402 10.1647 43.3016 10.1647Z" fill="white"/>
<path d="M46.9592 12.1976H46.9584C46.397 12.1976 45.9424 12.653 45.9424 13.2141C45.9424 13.7755 46.3978 14.2305 46.9592 14.2305C47.5207 14.2305 47.9757 13.7755 47.9757 13.2141C47.9757 12.653 47.5203 12.1976 46.9592 12.1976Z" fill="white"/>
<path d="M34.4331 20.3291H40.5318C42.2129 20.3291 43.5811 18.9609 43.5811 17.2794V15.2465C43.5811 13.5654 42.2129 12.1971 40.5318 12.1971H34.4331C32.7516 12.1971 31.3838 13.5654 31.3838 15.2465V17.2794C31.3838 18.9609 32.7516 20.3291 34.4331 20.3291ZM33.4167 15.2465C33.4167 14.6862 33.8725 14.23 34.4331 14.23H40.5318C41.092 14.23 41.5483 14.6862 41.5483 15.2465V17.2794C41.5483 17.84 41.092 18.2962 40.5318 18.2962H34.4331C33.8725 18.2962 33.4167 17.84 33.4167 17.2794V15.2465Z" fill="white"/>
<path d="M16.1366 8.13189H19.795C20.3564 8.13189 20.8114 7.67648 20.8114 7.11545C20.8114 6.55402 20.3564 6.099 19.795 6.099H16.1366C15.5751 6.099 15.1201 6.55402 15.1201 7.11545C15.1201 7.67648 15.5751 8.13189 16.1366 8.13189Z" fill="white"/>
<path d="M16.1366 12.1976H16.137C16.6984 12.1976 17.1534 11.7425 17.1534 11.1811C17.1534 10.6197 16.6976 10.1647 16.1366 10.1647C15.5751 10.1647 15.1201 10.6197 15.1201 11.1811C15.1201 11.7425 15.5751 12.1976 16.1366 12.1976Z" fill="white"/>
<path d="M16.1366 20.3298H19.795C20.3564 20.3298 20.8114 19.8744 20.8114 19.3133C20.8114 18.7519 20.3564 18.2969 19.795 18.2969H16.1366C15.5751 18.2969 15.1201 18.7519 15.1201 19.3133C15.1201 19.8744 15.5751 20.3298 16.1366 20.3298Z" fill="white"/>
<path d="M16.1366 16.2634H19.795C20.3564 16.2634 20.8114 15.8083 20.8114 15.2469C20.8114 14.6859 20.3564 14.2305 19.795 14.2305H16.1366C15.5751 14.2305 15.1201 14.6859 15.1201 15.2469C15.1201 15.8083 15.5751 16.2634 16.1366 16.2634Z" fill="white"/>
<path d="M18.678 2.03289C19.2394 2.03289 19.6944 1.57787 19.6944 1.01645C19.6944 0.455019 19.2394 0 18.678 0H18.6772C18.1162 0 17.6611 0.455019 17.6611 1.01645C17.6611 1.57787 18.1165 2.03289 18.678 2.03289Z" fill="white"/>
<path d="M40.3528 30.4937C40.9142 30.4937 41.3692 30.0383 41.3692 29.4773C41.3692 28.9158 40.9142 28.4608 40.3528 28.4608H40.352C39.791 28.4608 39.3359 28.9158 39.3359 29.4773C39.3359 30.0383 39.7918 30.4937 40.3528 30.4937Z" fill="white"/>
</svg>
