<svg width="47" height="43" viewBox="0 0 47 43" fill="none" xmlns="http://www.w3.org/2000/svg">
<path d="M46.0818 1.81479C46.0581 0.797129 45.252 0 44.2462 0H39.1515C38.1456 0 37.3395 0.797129 37.3159 1.81479L36.8425 22.1644L34.2034 21.4572L33.7813 5.25395C33.758 4.36682 33.0527 3.67153 32.1752 3.67153H28.3538C27.4764 3.67153 26.771 4.36682 26.7477 5.25395L26.3805 19.3613L14.6197 16.2097C14.1296 16.0788 13.6265 16.3693 13.4952 16.8591C13.364 17.3486 13.6548 17.852 14.1446 17.9833L14.4996 18.0783V23.9279L11.5467 23.1368C11.0565 23.0056 10.5534 23.296 10.4222 23.7859C10.2909 24.2753 10.5817 24.7788 11.0716 24.91L23.8199 28.3259V29.3747H2.87186V22.713L3.09131 22.7718C3.17092 22.7929 3.25088 22.8033 3.32941 22.8033C3.73461 22.8033 4.10574 22.533 4.21547 22.1228C4.34671 21.6329 4.05626 21.1295 3.56644 20.9986L1.15568 20.3524C0.665502 20.2212 0.162769 20.512 0.0315281 21.0018C-0.0997132 21.4913 0.190739 21.9947 0.680563 22.126L1.03592 22.221V41.3084C1.03592 41.8154 1.44685 42.2263 1.95389 42.2263H46.0821C46.3292 42.2263 46.5662 42.1266 46.7387 41.9499C46.9115 41.7731 47.0055 41.5343 46.9998 41.2868L46.0818 1.81479ZM44.475 11.6765H38.9227L39.045 6.4258H44.3527L44.475 11.6765ZM38.88 13.5125H44.5176L44.5603 15.3488H38.8373L38.88 13.5125ZM39.1579 1.83594H44.2401C44.2426 1.83953 44.2462 1.84598 44.2466 1.8571L44.31 4.58986H39.0876L39.1511 1.8571C39.1515 1.84598 39.155 1.83953 39.1579 1.83594ZM28.4822 9.17936H32.0469L32.2075 15.3488H28.3212L28.4822 9.17936ZM31.9511 5.50747L31.9992 7.34341H28.5299L28.5776 5.50747H31.9511ZM28.2739 17.1847H32.2552L32.3538 20.9617L28.2043 19.8501L28.2739 17.1847ZM2.87186 31.211H23.8199V40.3904H21.8434V33.9646C21.8434 33.4579 21.4325 33.0466 20.9254 33.0466H9.90976C9.40308 33.0466 8.99179 33.4579 8.99179 33.9646V40.3904H2.87186V31.211ZM16.3356 34.8826H20.0074V40.3904H16.3356V34.8826ZM14.4996 40.3904H10.8277V34.8826H14.4996V40.3904ZM41.1907 40.3904V38.7628C41.1907 38.2557 40.7798 37.8448 40.2727 37.8448C39.7661 37.8448 39.3548 38.2557 39.3548 38.7628V40.3904H25.6558V28.8096C25.6953 28.815 25.7347 28.8175 25.7742 28.8175C26.1794 28.8175 26.5501 28.5468 26.6602 28.1365C26.7915 27.6471 26.5007 27.1436 26.0112 27.0124L16.3356 24.4198V18.5703L39.3551 24.7383V30.501C39.3551 31.0081 39.7661 31.419 40.2731 31.419C40.7798 31.419 41.1911 31.0081 41.1911 30.501V25.222C41.2305 25.2274 41.27 25.2299 41.309 25.2299C41.7142 25.2299 42.0854 24.9591 42.1951 24.5489C42.3263 24.0595 42.0359 23.556 41.5461 23.4248L38.6677 22.6535L38.7947 17.1847H44.603L45.1427 40.3904H41.1907Z" fill="white"/>
<path d="M29.4463 33.7144C28.9393 33.7144 28.5283 34.1253 28.5283 34.6323V37.6365C28.5283 38.1432 28.9393 38.5545 29.4463 38.5545C29.953 38.5545 30.3643 38.1432 30.3643 37.6365V34.632C30.3643 34.1253 29.953 33.7144 29.4463 33.7144Z" fill="white"/>
<path d="M34.9541 33.7144C34.4471 33.7144 34.0361 34.1253 34.0361 34.6323V37.6365C34.0361 38.1432 34.4471 38.5545 34.9541 38.5545C35.4611 38.5545 35.8721 38.1432 35.8721 37.6365V34.632C35.8721 34.1253 35.4611 33.7144 34.9541 33.7144Z" fill="white"/>
<path d="M34.9541 26.7036C34.4471 26.7036 34.0361 27.1145 34.0361 27.6216V30.6258C34.0361 31.1328 34.4471 31.5438 34.9541 31.5438C35.4611 31.5438 35.8721 31.1328 35.8721 30.6258V27.6216C35.8721 27.1145 35.4611 26.7036 34.9541 26.7036Z" fill="white"/>
<path d="M7.06661 23.8371C7.15087 23.8612 7.23586 23.8726 7.31941 23.8726C7.71887 23.8726 8.08641 23.6098 8.20152 23.2064C8.34101 22.7191 8.05844 22.211 7.57113 22.0718L7.57041 22.0715C7.08274 21.9327 6.57535 22.2149 6.43586 22.7022C6.29673 23.1895 6.57929 23.6976 7.06661 23.8371Z" fill="white"/>
<path d="M40.2725 33.7139C39.7658 33.7139 39.3545 34.1252 39.3545 34.6322C39.3545 35.1392 39.7658 35.5502 40.2725 35.5502C40.7795 35.5502 41.1904 35.1389 41.1904 34.6322V34.6315C41.1904 34.1244 40.7795 33.7139 40.2725 33.7139Z" fill="white"/>
</svg>
