<svg width="47" height="47" viewBox="0 0 47 47" fill="none" xmlns="http://www.w3.org/2000/svg">
<path d="M19.3937 10.596C19.2077 10.1243 18.6747 9.89274 18.203 10.0791C15.5404 11.1299 13.2679 12.9334 11.6315 15.2948C9.95588 17.7126 9.07031 20.5509 9.07031 23.503C9.07031 24.01 9.48138 24.4208 9.98819 24.4208C10.495 24.4208 10.9061 24.0099 10.9061 23.503C10.9061 18.2967 14.0348 13.6978 18.8768 11.7869C19.3485 11.6007 19.5798 11.0677 19.3937 10.596Z" fill="white"/>
<path d="M29.5451 22.5939C29.0382 22.5939 28.6273 23.0049 28.6273 23.5118C28.6273 26.3461 26.3213 28.6522 23.4869 28.6522C20.6525 28.6522 18.3465 26.3462 18.3465 23.5118C18.3465 20.6774 20.6525 18.3714 23.4869 18.3714C23.9938 18.3714 24.4048 17.9604 24.4048 17.4535C24.4048 16.9465 23.9937 16.5356 23.4869 16.5356C19.6402 16.5356 16.5107 19.6651 16.5107 23.5118C16.5107 27.3585 19.6403 30.4879 23.4869 30.4879C27.3335 30.4879 30.463 27.3585 30.463 23.5118C30.463 23.0049 30.052 22.5939 29.5451 22.5939Z" fill="white"/>
<path d="M32.9472 22.5592C32.4403 22.5592 32.0293 22.9702 32.0293 23.4771V23.5117C32.0293 24.0187 32.4404 24.4296 32.9472 24.4296C33.454 24.4296 33.8651 24.0186 33.8651 23.5117V23.4771C33.8651 22.9702 33.454 22.5592 32.9472 22.5592Z" fill="white"/>
<path d="M29.2329 30.9306C29.0622 30.7589 28.8254 30.6616 28.584 30.6616C28.3426 30.6617 28.1058 30.759 27.935 30.9306C27.7642 31.1013 27.666 31.3372 27.666 31.5796C27.666 31.821 27.7641 32.0579 27.935 32.2286C28.1058 32.3993 28.3416 32.4966 28.584 32.4966C28.8254 32.4966 29.0622 32.3993 29.2329 32.2286C29.4036 32.0579 29.502 31.821 29.502 31.5796C29.502 31.3372 29.4037 31.1013 29.2329 30.9306Z" fill="white"/>
<path d="M43.8763 33.2827C43.349 33.2827 42.8522 33.4146 42.4162 33.6465L39.6997 30.93C39.5275 30.7579 39.2941 30.6611 39.0506 30.6611H32.3573C31.8504 30.6611 31.4395 31.0721 31.4395 31.579C31.4395 32.086 31.8505 32.4969 32.3573 32.4969H38.6703L41.1183 34.9449C40.8869 35.3805 40.7553 35.8768 40.7553 36.4034C40.7553 38.1243 42.1553 39.5243 43.8762 39.5243C45.5972 39.5243 46.9972 38.1243 46.9972 36.4034C46.9972 34.6826 45.5972 33.2827 43.8763 33.2827ZM43.8763 37.6887C43.1676 37.6887 42.5913 37.1122 42.5913 36.4036C42.5913 35.6949 43.1677 35.1185 43.8763 35.1185C44.5849 35.1185 45.1614 35.695 45.1614 36.4036C45.1614 37.1122 44.5848 37.6887 43.8763 37.6887Z" fill="white"/>
<path d="M43.8764 7.47845C42.1555 7.47845 40.7555 8.87844 40.7555 10.5994C40.7555 11.1261 40.8871 11.6224 41.1186 12.058L38.6706 14.506H28.6264C27.3503 13.7764 25.9173 13.3128 24.4149 13.1765V11.5172H34.0941C34.4285 11.5172 34.7364 11.3355 34.8978 11.0428L37.6873 5.98766C38.0657 6.15087 38.4821 6.24175 38.9198 6.24175C40.6407 6.24175 42.0407 4.84175 42.0407 3.12083C42.0407 1.4 40.6407 0 38.9198 0C37.1989 0 35.7989 1.4 35.7989 3.12092C35.7989 3.72275 35.9706 4.28482 36.2668 4.76198L33.5523 9.68139H24.4149V0.921736C24.4149 0.41474 24.0039 0.00385548 23.4971 0.00385548H19.3811C18.8742 0.00385548 18.4632 0.414832 18.4632 0.921736V3.76222C16.5666 4.24268 14.7609 4.99092 13.0782 5.9939L11.0774 3.99318C10.9051 3.82106 10.6716 3.72431 10.4281 3.72431C10.1846 3.72431 9.9511 3.82115 9.77898 3.99345L3.97712 9.79963C3.61883 10.1582 3.61892 10.7391 3.9773 11.0975L5.97582 13.0961C4.97293 14.779 4.22469 16.5846 3.74432 18.4811H0.917881C0.410976 18.4811 0 18.8921 0 19.399V27.6072C0 28.1142 0.411068 28.5251 0.917881 28.5251H3.7445C4.22478 30.4215 4.97302 32.2272 5.976 33.91L3.97748 35.9086C3.61911 36.267 3.61901 36.8479 3.9773 37.2064L9.77916 43.0126C9.95128 43.1848 10.1848 43.2817 10.4283 43.2818C10.4283 43.2818 10.4283 43.2818 10.4284 43.2818C10.6719 43.2818 10.9053 43.185 11.0775 43.0129L13.0783 41.0122C14.7612 42.0151 16.5668 42.7635 18.4632 43.2439V46.0799C18.4632 46.5867 18.8739 46.9975 19.3805 46.9978H23.4964H23.497C23.7403 46.9978 23.9738 46.9034 24.1459 46.7314C24.3181 46.5592 24.4149 46.3257 24.4149 46.0821V37.2798H33.5506L36.2679 42.2364C35.971 42.7139 35.799 43.2766 35.799 43.8791C35.799 45.6 37.199 47 38.9199 47C40.6408 47 42.0408 45.6 42.0408 43.8791C42.0408 42.1582 40.6407 40.7582 38.9198 40.7582C38.4832 40.7582 38.0675 40.8486 37.6898 41.0112L34.8991 35.9205C34.738 35.6266 34.4294 35.4438 34.0942 35.4438H24.4148V32.9726C24.4148 32.4656 24.0037 32.0547 23.4969 32.0547C18.7814 32.0547 14.9452 28.2185 14.9452 23.503C14.9452 18.8447 18.6894 15.0449 23.3262 14.9536C23.3785 14.9629 23.432 14.9685 23.487 14.9685C27.0396 14.9685 30.2585 17.2047 31.4967 20.5328C31.6342 20.9025 31.9845 21.131 32.3571 21.131C32.4634 21.131 32.5716 21.1124 32.6771 21.0732C33.1522 20.8964 33.3941 20.368 33.2173 19.8928C32.7154 18.5439 31.9447 17.3438 30.9815 16.3417H39.0507C39.2942 16.3417 39.5276 16.245 39.6998 16.0729L42.4163 13.3564C42.8523 13.5883 43.3491 13.7202 43.8764 13.7202C45.5973 13.7202 46.9973 12.3202 46.9973 10.5993C46.9973 8.87844 45.5972 7.47845 43.8764 7.47845ZM38.9198 1.83585C39.6285 1.83585 40.2049 2.41234 40.2049 3.12092C40.2049 3.82951 39.6284 4.40599 38.9198 4.40599C38.2112 4.40599 37.6348 3.82951 37.6348 3.12092C37.6348 2.41234 38.2112 1.83585 38.9198 1.83585ZM38.9198 42.5942C39.6285 42.5942 40.2049 43.1707 40.2049 43.8793C40.2049 44.5878 39.6283 45.1643 38.9198 45.1643C38.2112 45.1643 37.6348 44.5878 37.6348 43.8793C37.6348 43.1707 38.2112 42.5942 38.9198 42.5942ZM22.5791 13.1558C17.2799 13.6222 13.1094 18.0849 13.1094 23.5031C13.1094 28.9214 17.2797 33.3841 22.579 33.8504V45.1639L20.2988 45.1626V42.5163C20.2988 42.0836 19.9967 41.7097 19.5737 41.6188C17.3869 41.149 15.3239 40.2941 13.4418 39.0778C13.0784 38.8431 12.6005 38.8938 12.2945 39.1997L10.4285 41.0658L5.92432 36.5582L7.78872 34.6938C8.09459 34.3878 8.14544 33.9099 7.91053 33.5465C6.69431 31.6644 5.83941 29.6014 5.36977 27.4146C5.27889 26.9916 4.905 26.6895 4.47236 26.6895H1.83576V20.3171H4.47227C4.905 20.3171 5.2788 20.0149 5.36968 19.592C5.83941 17.4052 6.69422 15.3423 7.91044 13.4601C8.14535 13.0968 8.0945 12.6188 7.78863 12.3129L5.92423 10.4485L10.4284 5.94084L12.2944 7.8069C12.6005 8.11295 13.0784 8.16353 13.4417 7.9288C15.3237 6.71258 17.3868 5.85758 19.5736 5.38776C19.9966 5.29688 20.2988 4.92299 20.2988 4.49035V1.83971H22.5789V13.1558H22.5791ZM43.8764 11.8843C43.1677 11.8843 42.5913 11.3079 42.5913 10.5993C42.5913 9.89069 43.1678 9.31421 43.8764 9.31421C44.585 9.31421 45.1615 9.89069 45.1615 10.5993C45.1615 11.3079 44.585 11.8843 43.8764 11.8843Z" fill="white"/>
<path d="M43.8756 20.3938C42.4741 20.3938 41.2856 21.3225 40.8927 22.5968H38.1845C37.6776 22.5968 37.2666 23.0078 37.2666 23.5147C37.2666 24.0216 37.6777 24.4326 38.1845 24.4326H40.8926C41.2855 25.7068 42.474 26.6356 43.8755 26.6356C45.5965 26.6356 46.9965 25.2356 46.9965 23.5147C46.9966 21.7938 45.5965 20.3938 43.8756 20.3938ZM43.8756 24.7998C43.167 24.7998 42.5906 24.2233 42.5906 23.5147C42.5906 22.8061 43.1671 22.2297 43.8756 22.2297C44.5842 22.2297 45.1607 22.8061 45.1607 23.5147C45.1607 24.2233 44.5841 24.7998 43.8756 24.7998Z" fill="white"/>
</svg>
