<svg width="50" height="45" viewBox="0 0 50 45" fill="none" xmlns="http://www.w3.org/2000/svg">
<path d="M48.0469 11.7973H46.0938V10.8203C46.0938 10.2809 45.6566 9.84375 45.1172 9.84375H34.5978C34.3029 9.01291 33.6433 8.35335 32.8125 8.05885V5.76965C33.9493 5.36644 34.7656 4.28078 34.7656 3.00781C34.7656 1.39267 33.4515 0.078125 31.8359 0.078125H27.4418C26.9024 0.078125 26.4652 0.515289 26.4652 1.05469C26.4652 1.59409 26.9024 2.03125 27.4418 2.03125H31.8359C32.3746 2.03125 32.8125 2.46956 32.8125 3.00781C32.8125 3.54645 32.3746 3.98438 31.8359 3.98438H18.1641C17.6254 3.98438 17.1875 3.54645 17.1875 3.00781C17.1875 2.46956 17.6254 2.03125 18.1641 2.03125H18.6527C19.1921 2.03125 19.6293 1.59409 19.6293 1.05469C19.6293 0.515289 19.1921 0.078125 18.6527 0.078125H18.1641C16.5485 0.078125 15.2344 1.39267 15.2344 3.00781C15.2344 4.28116 16.0507 5.36644 17.1875 5.76965V7.89062H14.2578C12.9848 7.89062 11.8992 8.70735 11.496 9.84375H0.976562C0.437164 9.84375 0 10.2809 0 10.8203V25.4688C0 26.0081 0.437164 26.4453 0.976562 26.4453H3.90625V44.0234C3.90625 44.5628 4.34341 45 4.88281 45H43.1641C43.7035 45 44.1406 44.5628 44.1406 44.0234V34.09C45.2774 33.6868 46.0938 32.6015 46.0938 31.3285C46.0938 29.713 44.7796 28.3988 43.1641 28.3988H38.6723V26.4453H45.1172C45.6566 26.4453 46.0938 26.0081 46.0938 25.4688V21.5629H48.0469C49.1238 21.5629 50 20.6866 50 19.6098V13.7504C50 12.6731 49.1238 11.7973 48.0469 11.7973ZM27.9297 7.89062V5.9375H30.8594V7.89062H27.9297ZM19.1406 5.9375H25.9766V7.89062H19.1406V5.9375ZM14.2578 9.84375H31.8359C32.3746 9.84375 32.8125 10.2821 32.8125 10.8203C32.8125 11.3589 32.3746 11.7969 31.8359 11.7969H14.2578C13.7192 11.7969 13.2812 11.3589 13.2812 10.8203C13.2812 10.2821 13.7192 9.84375 14.2578 9.84375ZM15.2344 28.3988V13.75H17.1875V16.6801C17.1875 17.2191 17.6247 17.6566 18.1641 17.6566H18.8236V20.5863C18.8236 21.1257 19.2608 21.5629 19.8002 21.5629H20.7771V22.5394C20.7771 23.0788 21.2143 23.516 21.7537 23.516C22.2927 23.516 22.7303 23.0788 22.7303 22.5394V21.5629H30.8594V28.3984H15.2344V28.3988ZM5.85938 24.4922H13.2812V27.4219H5.85938V24.4922ZM5.85938 29.375H13.2812V39.1406H5.85938V29.375ZM25 13.75V15.7035H19.1406V13.75H25ZM30.8594 13.75V19.6098H24.6834V17.6566H25.9766C26.516 17.6566 26.9531 17.2191 26.9531 16.6801V13.75H30.8594ZM20.7767 19.6098V17.6566H22.7303V19.6098H20.7767ZM1.95312 24.4922V11.7969H11.496C11.7908 12.6281 12.4504 13.2873 13.2812 13.5822V22.5391H4.88281C4.34341 22.5391 3.90625 22.9762 3.90625 23.5156V24.4922H1.95312ZM5.85938 43.0469V41.0938H14.2578C14.7972 41.0938 15.2344 40.6566 15.2344 40.1172V34.2582H42.1875V43.0469H5.85938ZM44.1406 31.3285C44.1406 31.8668 43.7027 32.3051 43.1641 32.3051H15.2344V30.3519H43.1641C43.7023 30.3519 44.1406 30.7899 44.1406 31.3285ZM36.7191 28.3988H32.8125V26.4453H36.7191V28.3988ZM44.1406 24.4922H32.8125V13.5822C33.6437 13.2873 34.3029 12.6281 34.5978 11.7969H44.1406V24.4922ZM48.0469 19.6098H46.0938V13.7504H48.0469V19.6098Z" fill="white"/>
<path d="M41.2106 19.6097H37.6953C37.1559 19.6097 36.7188 20.0469 36.7188 20.5863C36.7188 21.1257 37.1559 21.5629 37.6953 21.5629H41.2106C41.7496 21.5629 42.1871 21.1257 42.1871 20.5863C42.1871 20.0469 41.7496 19.6097 41.2106 19.6097Z" fill="white"/>
<path d="M41.2106 15.7034H37.6953C37.1559 15.7034 36.7188 16.1405 36.7188 16.6799C36.7188 17.2189 37.1559 17.6565 37.6953 17.6565H41.2106C41.7496 17.6565 42.1871 17.2189 42.1871 16.6799C42.1871 16.1405 41.7496 15.7034 41.2106 15.7034Z" fill="white"/>
<path d="M4.88281 15.7036H8.39806C8.93745 15.7036 9.37462 15.2661 9.37462 14.7271C9.37462 14.1877 8.93745 13.7505 8.39806 13.7505H4.88281C4.34341 13.7505 3.90625 14.1877 3.90625 14.7271C3.90625 15.2661 4.3438 15.7036 4.88281 15.7036Z" fill="white"/>
<path d="M4.88281 19.6097H4.88358C5.42297 19.6097 5.85976 19.1726 5.85976 18.6332C5.85976 18.0938 5.42221 17.6566 4.88281 17.6566C4.34341 17.6566 3.90625 18.0938 3.90625 18.6332C3.90625 19.1726 4.3438 19.6097 4.88281 19.6097Z" fill="white"/>
<path d="M39.2574 39.1406H33.8867C33.3473 39.1406 32.9102 39.5778 32.9102 40.1172C32.9102 40.6566 33.3473 41.0937 33.8867 41.0937H39.2574C39.7964 41.0937 40.234 40.6566 40.234 40.1172C40.234 39.5778 39.7964 39.1406 39.2574 39.1406Z" fill="white"/>
<path d="M29.4926 39.1406H29.4918C28.9528 39.1406 28.5156 39.5778 28.5156 40.1172C28.5156 40.6566 28.9532 41.0937 29.4926 41.0937C30.032 41.0937 30.4691 40.6566 30.4691 40.1172C30.4691 39.5778 30.032 39.1406 29.4926 39.1406Z" fill="white"/>
<path d="M23.0469 2.03125H23.0476C23.587 2.03125 24.0238 1.59409 24.0238 1.05469C24.0238 0.515289 23.5863 0.078125 23.0469 0.078125C22.5075 0.078125 22.0703 0.515289 22.0703 1.05469C22.0703 1.59409 22.5075 2.03125 23.0469 2.03125Z" fill="white"/>
</svg>
