<svg width="43" height="39" viewBox="0 0 43 39" fill="none" xmlns="http://www.w3.org/2000/svg">
<path d="M7.76695 27.7902H0.826271C0.369885 27.7902 0 28.16 0 28.6164V38.1737C0 38.6301 0.369885 39 0.826271 39H7.76695C8.22334 39 8.59322 38.6301 8.59322 38.1737V28.6164C8.59322 28.1604 8.22334 27.7902 7.76695 27.7902ZM6.94068 37.3475H1.65254V29.4427H6.94068V37.3475Z" fill="white"/>
<path d="M18.9769 17.517H12.0362C11.5798 17.517 11.21 17.8869 11.21 18.3432V38.1737C11.21 38.6301 11.5798 39 12.0362 39H18.9769C19.4333 39 19.8032 38.6301 19.8032 38.1737V18.3432C19.8032 17.8869 19.433 17.517 18.9769 17.517ZM18.1506 37.3475H12.8625V19.1695H18.1506V37.3475Z" fill="white"/>
<path d="M30.2367 20.161H23.296C22.8399 20.161 22.4697 20.5309 22.4697 20.9873V38.1737C22.4697 38.6301 22.8399 39 23.296 39H30.2367C30.6931 39 31.0629 38.6301 31.0629 38.1737V20.9873C31.0629 20.5309 30.6931 20.161 30.2367 20.161ZM29.4104 37.3475H24.1223V21.8136H29.4104V37.3475Z" fill="white"/>
<path d="M4.29651 24.6229C6.21017 24.6229 7.76685 23.0662 7.76685 21.1525C7.76685 20.5487 7.61128 19.9803 7.33887 19.4852L13.5808 13.7648C14.132 14.1338 14.7944 14.3497 15.5064 14.3497C16.8533 14.3497 18.0223 13.578 18.5971 12.4538L23.2969 13.5573C23.3153 15.4555 24.8642 16.9938 26.7666 16.9938C28.6799 16.9938 30.2369 15.4371 30.2369 13.5234C30.2369 12.9344 30.0888 12.3795 29.8289 11.8931L36.0479 6.33195C36.606 6.71539 37.2812 6.94068 38.0084 6.94068C39.922 6.94068 41.4787 5.384 41.4787 3.47034C41.4787 1.55668 39.922 0 38.0084 0C36.0947 0 34.538 1.55668 34.538 3.47034C34.538 4.05938 34.6859 4.61421 34.946 5.10061L28.7267 10.6618C28.1686 10.278 27.4934 10.0531 26.7662 10.0531C25.4197 10.0531 24.2503 10.8248 23.6755 11.9487L18.9757 10.8451C18.9573 8.94729 17.4084 7.40901 15.506 7.40901C13.5927 7.40901 12.0357 8.96569 12.0357 10.8793C12.0357 11.4832 12.1913 12.0516 12.4637 12.5467L6.22211 18.267C5.67083 17.8978 5.00852 17.6822 4.29651 17.6822C2.38285 17.6822 0.826172 19.2389 0.826172 21.1525C0.826172 23.0662 2.38285 24.6229 4.29651 24.6229ZM38.0084 1.65254C39.0109 1.65254 39.8262 2.46784 39.8262 3.47034C39.8262 4.47284 39.0109 5.28814 38.0084 5.28814C37.0059 5.28814 36.1906 4.47284 36.1906 3.47034C36.1906 2.46784 37.0059 1.65254 38.0084 1.65254ZM26.7662 11.7056C27.7687 11.7056 28.584 12.5209 28.584 13.5234C28.584 14.5256 27.7687 15.3412 26.7662 15.3412C25.7641 15.3412 24.9484 14.5256 24.9484 13.5234C24.9484 12.5209 25.7641 11.7056 26.7662 11.7056ZM15.5064 9.06155C16.5085 9.06155 17.3242 9.87685 17.3242 10.8793C17.3242 11.8815 16.5085 12.6971 15.5064 12.6971C14.5039 12.6971 13.6886 11.8815 13.6886 10.8793C13.6886 9.87685 14.5039 9.06155 15.5064 9.06155ZM4.29651 19.3347C5.29901 19.3347 6.11431 20.15 6.11431 21.1525C6.11431 22.155 5.29901 22.9703 4.29651 22.9703C3.29401 22.9703 2.47871 22.155 2.47871 21.1525C2.47871 20.15 3.29401 19.3347 4.29651 19.3347Z" fill="white"/>
<path d="M41.4789 10.1079H34.5382C34.0818 10.1079 33.7119 10.4778 33.7119 10.9342V20.8356C33.7119 21.2919 34.0818 21.6618 34.5382 21.6618C34.9946 21.6618 35.3645 21.2919 35.3645 20.8356V11.7605H40.6526V37.3474H35.3645V28.2723C35.3645 27.8159 34.9946 27.446 34.5382 27.446C34.0818 27.446 33.7119 27.8159 33.7119 28.2723V38.1737C33.7119 38.6301 34.0818 39 34.5382 39H41.4789C41.9352 39 42.3051 38.6301 42.3051 38.1737V10.9342C42.3051 10.4781 41.9352 10.1079 41.4789 10.1079Z" fill="white"/>
<path d="M34.5382 25.3807C34.7554 25.3807 34.9688 25.2923 35.1224 25.1383C35.276 24.9847 35.3645 24.7716 35.3645 24.5544C35.3645 24.3362 35.276 24.1239 35.1224 23.9702C34.9688 23.8156 34.7554 23.7281 34.5382 23.7281C34.321 23.7281 34.1076 23.8156 33.954 23.9702C33.8004 24.1239 33.7119 24.3362 33.7119 24.5544C33.7119 24.7716 33.8004 24.9847 33.954 25.1383C34.1076 25.2923 34.321 25.3807 34.5382 25.3807Z" fill="white"/>
</svg>
