<svg width="40" height="41" viewBox="0 0 40 41" fill="none" xmlns="http://www.w3.org/2000/svg">
<path d="M7.90185 26.3544C7.20282 26.3544 6.65527 26.9421 6.65527 27.6922C6.65527 28.4423 7.20282 29.03 7.90185 29.03C8.60088 29.03 9.14843 28.4423 9.14843 27.6922C9.14843 26.9421 8.60088 26.3544 7.90185 26.3544Z" fill="white"/>
<path d="M12.231 26.3544C11.5319 26.3544 10.9844 26.9421 10.9844 27.6922C10.9844 28.4423 11.5319 29.03 12.231 29.03C12.93 29.03 13.4775 28.4423 13.4775 27.6922C13.4777 26.9421 12.9301 26.3544 12.231 26.3544Z" fill="white"/>
<path d="M31.9727 27.7593H26.6215C26.0673 27.7593 25.6182 28.2085 25.6182 28.7626C25.6182 29.3168 26.0673 29.766 26.6215 29.766H31.9727C32.5268 29.766 32.976 29.3168 32.976 28.7626C32.976 28.2085 32.5268 27.7593 31.9727 27.7593Z" fill="white"/>
<path d="M31.9727 24.8829H26.6215C26.0673 24.8829 25.6182 25.3321 25.6182 25.8863C25.6182 26.4404 26.0673 26.8896 26.6215 26.8896H31.9727C32.5268 26.8896 32.976 26.4404 32.976 25.8863C32.976 25.3321 32.5268 24.8829 31.9727 24.8829Z" fill="white"/>
<path d="M19.6844 3.12476C18.0879 3.12476 16.7891 4.42363 16.7891 6.02006C16.7891 7.61649 18.0879 8.91536 19.6844 8.91536C21.2809 8.91536 22.5798 7.61649 22.5798 6.02006C22.5798 4.42363 21.2809 3.12476 19.6844 3.12476ZM19.6844 6.90867C19.1944 6.90867 18.7957 6.51004 18.7957 6.02006C18.7957 5.53007 19.1944 5.13144 19.6844 5.13144C20.1743 5.13144 20.5731 5.53007 20.5731 6.02006C20.5731 6.51004 20.1745 6.90867 19.6844 6.90867Z" fill="white"/>
<path d="M39.9971 39.0545L38.6622 21.4337V1.00334C38.6622 0.449173 38.213 0 37.6588 0H33.2441C32.69 0 32.2408 0.449173 32.2408 1.00334V2.80936H25.4181V1.60535C25.4181 1.05118 24.9689 0.602005 24.4147 0.602005H11.1706C10.6164 0.602005 10.1673 1.05118 10.1673 1.60535V2.80936H7.75924V1.00334C7.75924 0.449173 7.31007 0 6.7559 0H2.34119C1.78702 0 1.33785 0.449173 1.33785 1.00334V21.4337L0.00289565 39.0545C-0.0183198 39.3329 0.0777578 39.6076 0.267616 39.8124C0.457474 40.0173 0.724086 40.1337 1.0034 40.1337H7.49168C7.92356 40.1337 8.30706 39.8574 8.44354 39.4476L9.68633 35.719H30.3137L31.5565 39.4476C31.693 39.8574 32.0765 40.1337 32.5083 40.1337H38.9966C39.2759 40.1337 39.5426 40.0173 39.7324 39.8125C39.9223 39.6078 40.0182 39.3329 39.9971 39.0545ZM34.2475 2.00668H36.6555V20.4682H34.2475V2.00668ZM32.2408 4.81604V7.22406H25.4181V4.81604H32.2408ZM12.1739 2.60869H23.4114V9.43142H12.1739V2.60869ZM16.7893 11.6388V14.9145L15.9866 15.4496L15.184 14.9145V11.6388H16.7893ZM13.1773 11.4381V15.4515C13.1773 15.787 13.3448 16.1002 13.624 16.2863L15.43 17.4903C15.5986 17.6026 15.7926 17.6588 15.9866 17.6588C16.1807 17.6588 16.3746 17.6026 16.5432 17.4903L18.3493 16.2863C18.6284 16.1002 18.796 15.787 18.796 15.4515V11.4381H24.4147C24.9689 11.4381 25.4181 10.9889 25.4181 10.4348V9.23075H32.2408V20.4682H7.75924V9.23075H10.1673V10.4348C10.1673 10.9889 10.6164 11.4381 11.1706 11.4381H13.1773ZM10.1673 4.81604V7.22406H7.75924V4.81604H10.1673ZM3.34453 2.00668H5.75255V20.4682H3.34453V2.00668ZM33.2314 38.127L31.9886 34.3984C31.8522 33.9886 31.4687 33.7123 31.0368 33.7123H8.96325C8.53137 33.7123 8.14787 33.9886 8.01139 34.3984L6.7686 38.127H2.08566L3.27143 22.4749H36.7287L37.9145 38.127H33.2314Z" fill="white"/>
</svg>
