<svg width="36" height="41" viewBox="0 0 36 41" fill="none" xmlns="http://www.w3.org/2000/svg">
<path d="M17.9998 28.7522C23.9821 28.7522 28.8317 23.9026 28.8317 17.9204C28.8317 11.9381 23.9821 7.0885 17.9998 7.0885C12.0176 7.0885 7.16797 11.9381 7.16797 17.9204C7.16797 23.9026 12.0176 28.7522 17.9998 28.7522Z" fill="#FF8619"/>
<path d="M30.7279 5.27201C27.3282 1.87232 22.808 0 18 0C13.192 0 8.67178 1.87232 5.27209 5.27201C1.87232 8.67186 0 13.192 0 18C0 26.4822 5.92996 33.8052 14.168 35.5897L18 40.6991L21.8321 35.5897C30.07 33.8051 36 26.4822 36 18C36 13.192 34.1277 8.67186 30.7279 5.27201ZM18 4.69912C25.2902 4.69912 31.2212 10.6302 31.2212 17.9204C31.2212 25.2105 25.2902 31.1416 18 31.1416C10.7098 31.1416 4.77876 25.2105 4.77876 17.9204C4.77876 10.6302 10.7098 4.69912 18 4.69912Z" fill="#FF8619"/>
</svg>
