<svg width="13" height="10" viewBox="0 0 13 10" fill="none" xmlns="http://www.w3.org/2000/svg">
<path d="M11.7271 0H1.13C0.956053 0 0.793204 0.0436668 0.645874 0.115641L6.40344 5.9946L7.6939 4.72826C7.6939 4.72826 7.694 4.72813 7.69403 4.72808C7.69405 4.72803 7.69415 4.72798 7.69415 4.72798L12.2114 0.115744C12.0641 0.043718 11.9011 0 11.7271 0Z" fill="#292929"/>
<path d="M12.7441 0.659912L8.49316 5.00028L12.744 9.34071C12.8145 9.19028 12.8572 9.024 12.8572 8.84638V1.15407C12.8572 0.976553 12.8146 0.810297 12.7441 0.659912Z" fill="#292929"/>
<path d="M0.113253 0.659424C0.0427651 0.80986 0 0.976142 0 1.15376V8.84607C0 9.02359 0.0427149 9.18989 0.113153 9.34028L4.36412 4.99992L0.113253 0.659424Z" fill="#292929"/>
<path d="M7.96047 5.54375L6.66983 6.81024C6.59625 6.88537 6.49987 6.92293 6.40352 6.92293C6.30717 6.92293 6.21076 6.88537 6.13721 6.81024L4.8968 5.5437L0.645752 9.88409C0.793107 9.95612 0.956056 9.99983 1.13005 9.99983H11.7272C11.9011 9.99983 12.064 9.95617 12.2113 9.88419L7.96047 5.54375Z" fill="#292929"/>
</svg>
